<?xml version="1.0" encoding="UTF-8" standalone="no"?>
<svg
   xmlns:dc="http://purl.org/dc/elements/1.1/"
   xmlns:cc="http://creativecommons.org/ns#"
   xmlns:rdf="http://www.w3.org/1999/02/22-rdf-syntax-ns#"
   xmlns:svg="http://www.w3.org/2000/svg"
   xmlns="http://www.w3.org/2000/svg"
   xmlns:sodipodi="http://sodipodi.sourceforge.net/DTD/sodipodi-0.dtd"
   xmlns:inkscape="http://www.inkscape.org/namespaces/inkscape"
   version="1.1"
   id="svg2"
   xml:space="preserve"
   width="1365.3333"
   height="1333.3333"
   viewBox="0 0 1365.3333 1333.3333"
   sodipodi:docname="SEXY VECTOR GIRLS.ai"><metadata
     id="metadata8"><rdf:RDF><cc:Work
         rdf:about=""><dc:format>image/svg+xml</dc:format><dc:type
           rdf:resource="http://purl.org/dc/dcmitype/StillImage" /></cc:Work></rdf:RDF></metadata><defs
     id="defs6"><clipPath
       clipPathUnits="userSpaceOnUse"
       id="clipPath18"><path
         d="M 0,14400 H 14400 V 0 H 0 Z"
         id="path16" /></clipPath><clipPath
       clipPathUnits="userSpaceOnUse"
       id="clipPath54"><path
         d="M 0,14400 H 14400 V 0 H 0 Z"
         id="path52" /></clipPath><clipPath
       clipPathUnits="userSpaceOnUse"
       id="clipPath70"><path
         d="M 0,14400 H 14400 V 0 H 0 Z"
         id="path68" /></clipPath><clipPath
       clipPathUnits="userSpaceOnUse"
       id="clipPath94"><path
         d="M 0,14400 H 14400 V 0 H 0 Z"
         id="path92" /></clipPath><clipPath
       clipPathUnits="userSpaceOnUse"
       id="clipPath142"><path
         d="M 0,14400 H 14400 V 0 H 0 Z"
         id="path140" /></clipPath><clipPath
       clipPathUnits="userSpaceOnUse"
       id="clipPath186"><path
         d="M 0,14400 H 14400 V 0 H 0 Z"
         id="path184" /></clipPath><clipPath
       clipPathUnits="userSpaceOnUse"
       id="clipPath226"><path
         d="M 0,14400 H 14400 V 0 H 0 Z"
         id="path224" /></clipPath><clipPath
       clipPathUnits="userSpaceOnUse"
       id="clipPath278"><path
         d="M 0,14400 H 14400 V 0 H 0 Z"
         id="path276" /></clipPath><clipPath
       clipPathUnits="userSpaceOnUse"
       id="clipPath526"><path
         d="M 0,14400 H 14400 V 0 H 0 Z"
         id="path524" /></clipPath></defs><sodipodi:namedview
     pagecolor="#ffffff"
     bordercolor="#666666"
     borderopacity="1"
     objecttolerance="10"
     gridtolerance="10"
     guidetolerance="10"
     inkscape:pageopacity="0"
     inkscape:pageshadow="2"
     inkscape:window-width="640"
     inkscape:window-height="480"
     id="namedview4" /><g
     id="g10"
     inkscape:groupmode="layer"
     inkscape:label="SEXY VECTOR GIRLS"
     transform="matrix(1.3333333,0,0,-1.3333333,-8918,10266)"><g
       id="g12"><g
         id="g14"
         clip-path="url(#clipPath18)"><g
           id="g20"
           transform="translate(6824.79,7688.1479)"><path
             d="M 0,0 C -0.392,0.503 -0.869,0.939 -1.418,1.311 L -1.442,1.203 C -1.108,0.92 -0.637,0.528 0,0"
             style="fill:#000000;fill-opacity:1;fill-rule:nonzero;stroke:none"
             id="path22" /></g><g
           id="g24"
           transform="translate(6859.7407,7603.5205)"><path
             d="m 0,0 c -0.063,-0.527 -0.107,-0.846 -0.107,-0.846 0,0 0.083,0.232 0.107,0.846"
             style="fill:#000000;fill-opacity:1;fill-rule:nonzero;stroke:none"
             id="path26" /></g><g
           id="g28"
           transform="translate(6895.8999,7490.2808)"><path
             d="m 0,0 c -0.777,2.071 -4.371,11.121 -14.497,14.498 -1.553,0.517 -9.881,8.951 -15.402,9.319 -1.942,0.129 2.459,4.401 -3.496,12.944 0,0 -4.012,4.142 -5.048,10.225 -1.036,6.084 -3.883,0.259 -3.753,-2.977 0.129,-3.236 0.906,-10.484 -0.13,-10.226 -1.035,0.259 -7.248,6.084 -9.19,11.261 -1.942,5.179 -8.662,11.556 -5.621,28.729 0.328,1.852 5.043,2.507 5.852,10.712 0,0 6.808,4.957 7.067,12.463 0.093,2.711 -0.457,8.275 -1.198,14.68 -1.667,2.797 -5,7.567 -11.639,15.673 -0.155,0.191 -0.317,0.367 -0.48,0.54 -0.652,-3.922 -1.412,-7.107 -2.234,-8.738 0.186,1.668 0.209,4.749 -0.15,10.268 -0.007,0.102 -0.023,0.192 -0.033,0.29 -6.001,3.081 -14.041,-1.489 -15.57,0.041 -8.364,8.365 -9.524,12.672 -9.524,12.672 l 12.494,56.696 c -0.232,0.196 -0.401,0.342 -0.519,0.445 -4.561,2.575 -12.989,1.548 -17.856,-0.743 -6.601,-3.105 -14.409,-13.964 -15.186,-17.459 -0.256,-1.154 -5.242,-9.445 -5.242,-15.999 0,-2.429 -1.747,-4.295 -2.651,-11.482 -2.208,-17.559 0.944,1.765 2.052,-6.231 0.138,-0.996 -3.266,-13.978 0.416,-2.145 1.62,5.204 5.129,-8.681 4.754,-9.432 -1.092,-2.186 -5.69,-4.264 -9.291,-2.209 -3.255,1.859 -21.365,-3.961 -17.006,-15.679 6.948,-18.672 10.601,-14.797 17.227,-37.35 3.114,-10.603 4.112,-16.47 7.645,-24.351 1.683,-3.754 -2.2,-8.616 -2.945,-9.778 -1.575,-2.456 -3.397,-12.226 -7.151,-13.003 -0.923,-0.191 1.294,10.225 1.035,10.873 0,0 -1.552,6.472 -4.4,-0.777 -2.848,-7.249 -5.178,-7.249 -8.543,-11.649 -3.366,-4.401 -0.259,-5.436 0.258,-6.731 0.518,-1.294 -13.72,-5.695 -16.826,-12.167 0,0 -10.186,-1.425 -12.685,-14.756 -2.33,-12.426 6.989,-22.004 17.085,-20.192 0,0 3.108,0.777 6.99,1.553 3.883,0.777 14.497,5.178 18.121,8.801 4.175,4.176 21.746,7.767 26.406,14.497 l 21.486,0.518 c 0,0 12.726,-7.588 19.157,-10.872 6.083,-3.106 14.497,-11.779 21.486,-14.367 4.583,-1.697 10.339,-2.872 14.109,-3.107 4.142,-0.258 10.998,-1.081 15.662,9.578 C 1.942,-13.073 0.776,-2.071 0,0"
             style="fill:#000000;fill-opacity:1;fill-rule:nonzero;stroke:none"
             id="path30" /></g><g
           id="g32"
           transform="translate(6835.6235,7676.4155)"><path
             d="M 0,0 C 0.017,-0.034 0.032,-0.062 0.047,-0.089 -0.927,0.712 -1.908,1.479 -2.812,2.117 -1.53,1.378 -0.279,0.559 0,0 m -15.246,-56.433 c 1.53,-1.529 9.569,3.04 15.571,-0.041 0.855,-0.438 1.669,-1.031 2.417,-1.82 0.162,-0.173 0.324,-0.349 0.48,-0.539 6.638,-8.106 9.971,-12.877 11.638,-15.674 1.978,-3.316 4.098,-9.835 4.098,-9.835 0,0 0.248,-3.064 0.248,0.87 0,3.933 -0.828,3.726 -1.284,4.182 -0.455,0.456 2.113,0.207 2.775,-4.182 0.662,-4.39 1.822,0.91 -0.621,5.3 -1.905,3.422 -1.321,3.623 -1.411,3.81 0.874,-0.603 2.732,-1.931 2.901,-2.609 0.249,-0.994 2.921,-6.684 0.249,1.118 -0.766,2.236 -0.766,2.495 -0.766,2.495 0.217,-0.037 1.698,-0.497 2.132,0.403 0.564,1.167 -1.242,2.196 -1.242,2.196 0,0 1.563,-1.433 0.994,-2.279 -0.321,-0.475 -1.822,-0.123 -2.195,1.119 0,0 0.415,2.525 -0.373,4.514 -0.786,1.987 6.119,-8.992 0.249,2.609 -1.739,3.436 2.319,0.041 3.065,-3.893 0.408,-2.156 0.468,-3.461 0.438,-4.206 0.457,3.852 0.339,7.118 -0.645,8.802 -1.183,2.023 -2.403,3.313 -3.313,5.3 -0.911,1.988 -2.402,2.194 -2.402,6.376 0,4.183 2.029,-0.289 2.029,7.538 0,7.826 -1.573,5.424 -1.946,6.543 -0.373,1.117 0.952,-0.622 -0.373,3.602 -1.325,4.224 0.662,5.548 1.739,1.159 1.077,-4.389 3.097,-15.316 0.083,5.88 -0.192,1.349 -1.111,-1.347 -2.844,1.428 -0.046,0.073 -0.091,0.148 -0.137,0.228 l -0.497,4.197 c 0,0 3.478,3.864 1.656,5.079 -1.822,1.215 -1.27,1.989 -3.534,1.989 -2.263,0 2.706,8.114 -4.581,8.446 -7.289,0.332 -2.775,0.29 -3.645,1.16 -1.085,1.085 -3.264,3.1 -5.504,4.951 0.074,0.388 -1.133,4.055 -3.633,5.042 -3.009,1.188 -4.682,3.472 -5.217,4.008 l 2.718,-1.786 c 0,0 6.708,-4.803 -1.614,1.988 -1.421,1.159 -2.488,2.034 -3.29,2.697 -0.638,0.528 -1.108,0.92 -1.442,1.203 L -24.77,-43.761 c 0,0 1.16,-4.307 9.524,-12.672"
             style="fill:#000000;fill-opacity:1;fill-rule:nonzero;stroke:none"
             id="path34" /></g><g
           id="g36"
           transform="translate(6823.3716,7689.459)"><path
             d="m 0,0 0.001,0.007 c 0,0 -1.297,0.996 -0.543,0.33 0.117,-0.104 0.287,-0.25 0.519,-0.445 z"
             style="fill:#000000;fill-opacity:1;fill-rule:nonzero;stroke:none"
             id="path38" /></g><g
           id="g40"
           transform="translate(6823.3726,7689.4658)"><path
             d="m 0,0 c 0,0 -7.072,1.99 -17.776,-0.134 -9.329,-1.852 -8.998,-1.925 -8.104,-1.852 2.641,0.214 1.458,0.634 4.538,-0.235 3.081,-0.87 -2.219,1.339 -5.31,-1.753 -3.093,-3.092 4.692,-1.657 2.249,-3.271 -2.443,-1.616 -4.182,1.656 -6.046,-1.905 -1.863,-3.561 -3.105,-1.284 -4.679,-7.744 -1.386,-5.689 -3.064,-1.905 -4.887,-7.287 -0.93,-2.752 5.367,-4.581 -3.975,-8.282 -4.389,-1.739 -1.987,-0.746 2.816,0.249 4.804,0.993 -3.478,0.827 -3.478,-2.651 0,-3.478 2.402,1.408 0,-4.72 -2.402,-6.13 0.58,-4.141 0.041,-8.572 -0.538,-4.431 -6.252,-12.878 2.278,-0.621"
             style="fill:#000000;fill-opacity:1;fill-rule:nonzero;stroke:none"
             id="path42" /></g><g
           id="g44"
           transform="translate(6786.0161,7540.1548)"><path
             d="m 0,0 c 0,0 -7.562,-19.134 10.646,-24.054 l 3.106,-0.863 c 0,0 10.038,-17.585 10.37,-21.727 0.345,-4.315 13.496,-1.712 14.877,0.357 1.458,2.188 7.482,17.594 7.889,20.852 0.173,1.381 4.073,0.615 6.212,2.071 13.981,9.514 5.658,25.07 4.963,25.996 -0.064,0.086 0,0.043 0,0 0,-1.314 6.402,-15.036 -12.728,-20.818 -3.71,-1.122 0,0 0,0 0,0 -25.888,-0.863 -30.375,0.518 C 10.473,-16.288 -2.502,-15.748 0,0"
             style="fill:#f6f4f4;fill-opacity:1;fill-rule:nonzero;stroke:none"
             id="path46" /></g></g></g><g
       id="g48"><g
         id="g50"
         clip-path="url(#clipPath54)"><g
           id="g56"
           transform="translate(6789.04,7340.1514)"><path
             d="m 0,0 c -0.065,1.098 -0.859,1.484 -1.764,0.858 0,0 -2.995,-2.074 -4.441,-9.926 -1.793,-9.73 -1.075,-19.396 -3.767,-23.492 -2.044,-3.11 -1.625,-4.971 -3.107,-7.703 -1.66,-3.064 -7.744,-10.682 -10.107,-13.044 0,0 -11.298,-12.703 -7.597,-16.404 3.704,-3.704 1.788,-5.173 -0.51,-5.173 -2.298,0 -5.243,-1.803 -7.469,5.617 -1.875,6.258 -1.341,7.98 0.446,10.343 1.272,1.679 16.918,39.983 18.62,41.685 1.703,1.701 -0.511,36.259 0.596,40.6 1.107,4.341 1.799,12.201 13.958,17.193 8.086,3.32 6.214,11.406 6.214,18.556 0,7.149 3.319,35.321 14.3,40.429 10.98,5.107 22.175,1.447 26.044,-11.319 0.558,-1.84 2.468,-22.302 3.404,-24.088 0.938,-1.789 1.377,-1.562 10.13,-19.067 8.342,-16.682 6.654,-26.006 6.129,-28.939 -2.979,-16.597 -6.073,-25.758 -3.448,-40.727 1.575,-8.98 2.085,-12.554 1.15,-24.3 -0.573,-7.168 0.127,-5.364 0.127,-8.81 0,-3.449 5.042,-17.3 -4.916,-48.962 -9.958,-31.663 -9,-29.557 -9,-31.088 0,-1.532 -0.427,-6.044 -1.744,-11.15 -0.951,-3.673 0.211,-4.428 0.211,-9.023 0,-4.596 3.831,-23.493 -8.427,-50.05 l 0.371,-12.471 c 0.033,-1.1 0.334,-2.857 0.67,-3.903 0,0 3.484,-10.858 -4.68,-12.469 -5.638,-1.116 -5.041,-10.733 -5.041,-15.584 0,-7.32 -6.913,-6.428 -6.913,-6.428 -1.09,0.141 -2.882,0.226 -3.982,0.19 0,0 -4.522,-0.151 -6.428,3.216 -1.106,1.956 -3.786,5.065 1.491,12.384 2.64,3.663 8.936,25.619 8.936,28.686 0,3.062 -0.317,20.8 -1.276,23.49 -1.091,3.06 -8.681,20.767 -9.448,23.492 -0.414,1.474 -1.957,10.978 -0.265,21.664 1.236,7.807 -4.501,34.256 -9.608,43.278 -8.937,15.787 -8.02,26.781 -7.351,32.347 1.003,8.339 1.827,13.02 3.019,18.891 0.754,3.717 2.462,7.956 4.123,11.53 2.131,4.585 2.422,13.496 2.422,17.581 C 1.072,-18.006 0,0 0,0"
             style="fill:#000000;fill-opacity:1;fill-rule:nonzero;stroke:none"
             id="path58" /></g><g
           id="g60"
           transform="translate(6784.127,7291.895)"><path
             d="m 0,0 -1.304,-5.595 c 0,0 21.758,-7.656 33.041,-32.119 0,0 11.028,30.775 32.054,29.339 l -0.193,6.445 c 0,0 -16.338,-2.552 -15.652,15.498 0.685,18.05 2.742,26.316 2.9,30.306 0.133,3.385 4.893,0.32 5.277,10.725 0.227,6.188 -0.991,7.692 -1.873,9.702 -0.822,1.874 -10.044,30.323 -10.044,30.323 l -3.189,1.275 C 40.337,95.219 41.589,81.777 40.461,73.834 39.333,65.897 38.067,62.929 35.514,55.609 32.961,48.29 32.972,40.98 35.184,32.979 c 2.213,-8 4.591,-18.758 1.363,-26.046 -2.725,-6.148 -5.64,-6.275 -7.321,-6.275 -1.639,0 -5.447,0.319 -6.978,9.851 -1.533,9.534 0.509,22.301 0.509,26.216 0,3.915 1.702,10.383 -1.192,20.937 -2.894,10.555 -4.426,17.194 -5.616,21.62 -1.193,4.426 -2.044,18.215 -2.044,18.215 0,0 -2.894,-0.342 -3.744,-1.192 C 9.31,95.454 11.096,80.475 8.883,75.707 6.671,70.94 2.952,68.303 1.181,65.239 -1.203,61.111 -1.133,57.276 -0.394,53.407 c 0,0 0.958,-6.745 5.106,-10.894 2.383,-2.385 6.726,-19.66 6.726,-25.449 C 11.438,11.276 13.949,0 0,0"
             style="fill:#f9f9f9;fill-opacity:1;fill-rule:nonzero;stroke:none"
             id="path62" /></g></g></g><g
       id="g64"><g
         id="g66"
         clip-path="url(#clipPath70)"><g
           id="g72"
           transform="translate(6990.6538,7090.1768)"><path
             d="m 0,0 c -0.389,-1.029 -1.585,-2.068 -2.658,-2.31 0,0 -9.185,-2.064 -12.25,1.615 0,0 -0.408,10.266 -0.613,10.471 -0.205,0.203 -1.533,1.787 -1.533,2.912 0,1.125 0.154,9.092 -0.868,10.625 -1.022,1.534 0.46,5.466 0.46,8.122 0,2.656 0.23,3.907 -0.256,4.394 -0.486,0.485 -0.204,2.042 0.153,2.401 0.357,0.357 -0.127,4.215 -1.481,5.567 -1.353,1.353 -0.102,4.752 -0.102,4.957 0,0.203 -2.095,14.811 -3.934,18.645 -1.838,3.831 -4.137,25.593 -4.137,27.277 0,7.51 5.21,34.634 -3.065,64.672 0,0 -1.839,10.115 -1.839,11.494 0,1.379 -5.409,2.024 -5.409,2.024 -1.093,0.13 -1.874,0.848 -1.737,1.596 0.138,0.748 0.383,2.25 0.547,3.338 0,0 0.028,0.187 -0.949,-1.71 -0.977,-1.896 -3.679,-10.152 -7.815,-11.035 -4.139,-0.88 2.133,-2.46 2.133,-2.46 1.067,-0.269 1.788,-1.376 1.603,-2.46 0,0 -0.327,-1.911 -1.553,-1.911 h -1.226 c -0.744,0.745 -2.172,0.978 -3.171,0.519 0,0 -7.913,-3.639 -7.913,0.835 0,0.292 0.101,-0.179 0.101,1.047 0,1.227 -3.984,-3.167 -2.963,4.955 -0.927,0.562 -2.169,0.516 -2.758,-0.103 v 1.534 c 0,1.531 -31.467,10.522 -32.999,13.178 -1.533,2.657 0.61,4.163 0.61,4.163 0.901,0.632 2.444,0.751 3.43,0.262 l 28.597,-14.15 c 0.986,-0.488 2.332,-0.192 2.992,0.658 v -1.327 -1.329 c 0.541,0.54 1.026,1.882 1.077,2.98 0,0 0.047,1.005 5.488,2.155 5.44,1.148 4.598,2.451 6.59,6.129 1.991,3.678 4.597,8.889 6.972,12.567 2.376,3.678 4.061,9.731 4.061,12.029 0,2.298 5.824,13.41 7.894,15.479 2.068,2.069 4.979,25.209 4.418,25.772 -0.562,0.56 -3.082,3.08 -3.082,3.08 -0.777,0.778 -1.781,2.236 -2.231,3.24 0,0 -3.984,8.902 -1.942,9.31 2.045,0.409 3.577,-2.145 4.087,-1.634 0.512,0.511 2.759,14.201 4.598,17.165 1.84,2.962 -1.226,4.494 5.875,6.998 7.1,2.503 15.324,11.748 16.04,12.464 0,0.506 -0.631,0.279 -1.402,-0.506 0,0 -3.835,-3.901 -5.443,-4.091 -1.61,-0.192 4.559,2.605 4.559,4.404 v 1.802 c -0.696,-0.695 -1.721,-2.04 -2.278,-2.988 0,0 -3.086,-5.25 -7.607,-2.951 0,0 5.862,-0.996 7.682,5.612 2.438,8.856 -1.13,0.901 -1.974,0.479 -0.842,-0.42 -6.168,-4.942 -8.045,-3.063 0,0 5.403,-0.308 5.403,4.099 0,0 -3.602,3.41 -3.41,5.209 0.191,1.802 -3.985,-0.907 -4.803,1.802 -0.817,2.707 0.555,2.707 0.555,2.707 1.1,0 2,0.9 2,2 0,0 0,0.759 -1.84,2.598 -1.838,1.838 0.16,1.717 1.214,2.771 1.054,1.053 -2.03,1.876 4.443,7.931 6.476,6.052 0.825,2.548 -0.113,1.609 l -0.94,-0.939 c 0,0.242 0.516,1.178 1.146,2.079 0,0 2.283,3.265 3.165,5.525 l 0.881,2.261 c -0.253,-0.927 -1.097,-1.049 -1.874,-0.271 0,0 -0.042,0.041 1.759,1.343 1.8,1.303 1.8,5.786 1.8,6.858 0,1.074 -4.444,1.419 -3.236,4.311 1.206,2.893 2.279,3.71 5.037,2.484 l 2.759,-1.227 c 0.28,-0.28 1.41,-0.51 2.51,-0.51 h 6.218 c 1.1,0 2.881,-0.182 3.958,-0.405 l 2.009,-0.415 c 1.077,-0.223 2.834,-0.613 3.904,-0.865 l 7.346,-1.737 c 1.07,-0.253 2.627,-1.048 3.46,-1.767 L 31.8,339.14 c 0.832,-0.719 2.268,-0.817 3.19,-0.218 0,0 0.584,0.38 1.12,-1.306 0.538,-1.686 -2.029,-3.41 -3.562,-3.41 -1.533,0 -1.533,-1.218 -1.533,-1.218 0,-1.1 -0.586,-2 -1.303,-2 -0.716,0 -1.663,-0.825 -2.104,-1.833 l -0.542,-1.24 c -0.441,-1.008 -0.967,-2.717 -1.17,-3.798 0,0 -0.09,-0.486 1.901,-1.482 l 1.992,-0.996 c -0.484,-0.485 -0.898,-0.485 -0.919,0 l -1.265,0.422 c -1.265,0.421 -2.376,-0.153 -0.651,-1.878 1.724,-1.724 6.743,-7.433 6.743,-11.264 0,-3.831 -2.988,-5.21 -3.448,-7.279 -0.46,-2.067 -1.916,-0.077 1.916,-2.912 3.831,-2.834 4.981,-4.674 8.199,-5.209 3.218,-0.538 11.646,1.301 14.098,-7.587 2.453,-8.888 5.192,-17.105 5.192,-17.105 0.347,-1.043 1.526,-1.793 2.618,-1.665 l 3.23,0.378 c 1.093,0.128 1.722,-0.628 1.398,-1.679 0,0 -2.477,-8.05 -3.396,-8.97 -0.919,-0.919 -6.206,-3.449 -6.206,-5.363 0,-1.916 1.455,-17.548 3.141,-19.234 1.686,-1.685 5.16,-26.563 6.743,-32.948 1.402,-5.653 1.456,-9.655 2.605,-11.8 0.767,-1.433 1.227,-7.049 3.066,-10.728 1.838,-3.678 3.678,-2.299 3.678,-8.888 0,-6.59 0.449,-11.89 -9.502,-10.728 -0.504,0.059 -0.402,0.793 0.09,1.137 l 0.613,0.428 c 0.609,0.028 1.915,0.45 2.901,0.938 0,0 0.85,0.42 -2.48,0.154 -1.732,-0.139 -3.78,1.323 -3.78,18.799 0,1.429 -0.268,5.274 -2.267,8.6 0,0 -8.972,18.575 -12.649,30.223 -3.678,11.648 -3.832,7.69 -4.905,25.746 -0.03,0.509 -2.579,1.863 -2.579,3.779 0,1.917 -1.839,-12.949 -7.739,-17.009 0,0 0.076,-5.44 -0.613,-7.05 -0.689,-1.61 1.123,-2.708 0.868,-4.496 -0.255,-1.787 -1.176,-1.327 -1.609,-3.14 -0.434,-1.815 0.486,-4.165 -0.434,-6.157 -0.92,-1.993 1.123,-6.488 1.123,-8.378 0,-1.889 -3.422,-3.066 -2.86,-4.087 0.562,-1.021 2.809,-1.531 2.809,-2.808 0,-1.277 -0.152,-2.453 1.278,-3.882 1.43,-1.432 -0.715,-3.68 0.357,-5.57 1.073,-1.89 4.419,-3.346 4.93,-5.746 0.51,-2.401 1.662,-5.695 2.733,-6.308 2.064,-1.183 8.071,-20.281 10.318,-30.292 2.248,-10.013 3.515,-9.165 4.394,-12.159 2.451,-8.353 -0.077,-11.723 1.302,-20.229 l 1.379,-8.505 c 0.295,0.295 0.563,-0.363 0.595,-1.462 0,0 1.015,-34.781 3.007,-38.154 1.992,-3.372 -0.153,-5.822 -0.153,-8.275 0,-2.451 -0.613,-10.268 0.919,-17.01 C 66.109,29.545 59.732,18.606 69.481,10.235 72.358,7.768 71.426,6.488 71.426,6.488 70.778,5.6 69.763,4.113 69.171,3.187 l -2.445,-3.832 c -0.592,-0.926 -1.976,-1.644 -3.075,-1.594 0,0 -9.878,0.446 -13.326,3.892 -3.449,3.45 3.677,17.472 0.154,20.995 -3.525,3.526 -3.525,-0.919 -3.525,-2.452 0,-1.532 -3.207,-11.278 -3.207,-11.278 -0.344,-1.045 -1.177,-1.899 -1.851,-1.899 -0.674,0 -1.015,0.875 -0.756,1.944 0,0 4.819,19.922 0.296,27.326 -0.681,1.114 5.626,7.33 5.626,7.33 0.783,0.773 1.681,2.267 1.994,3.321 0,0 0.272,0.918 -1.49,2.682 -1.762,1.762 2.683,4.215 1.686,5.209 -0.997,0.998 -2.605,5.211 -3.372,5.978 -0.766,0.765 -6.758,21.607 -7.509,31.109 0,0 -0.282,7.179 0.562,11.645 0.768,4.069 0.818,8.378 -1.532,10.729 -2.35,2.351 -5.619,17.062 -9.808,21.251 -5.619,5.619 -19.679,31.348 -19.679,31.348 -0.527,0.964 -1.858,1.799 -2.956,1.853 l -4.281,0.211 c -1.098,0.054 -2.291,-0.752 -2.651,-1.791 0,0 -0.554,-1.602 -0.879,-7.101 -0.482,-8.159 -1.624,-33.724 -1.43,-35.859 0.51,-5.621 -2.656,-10.728 -1.737,-23.5 0,0 0.543,-30.816 0.543,-34.493 0,-3.68 1.985,-1.557 -0.032,-17.815 -0.593,-4.784 1.788,0.033 1.788,-13.438 0,-2.501 3.218,-2.194 2.605,-6.076 C -1.729,24.999 1.03,12.536 1.03,7.631 1.03,2.728 0,0 0,0"
             style="fill:#000000;fill-opacity:1;fill-rule:nonzero;stroke:none"
             id="path74" /></g><g
           id="g76"
           transform="translate(7059.6118,7247.3164)"><path
             d="M 0,0 C 0,0 -0.895,-6.298 1.136,-7.292 L 1.06,-10.74 h 1.838 l 1.418,0.4 -0.522,4.986 -0.061,-0.097 c 0,0 1.196,1.568 0.392,5.778 C 4.102,0.445 3.243,0.216 3.243,0.216 c 0,0 0.46,-5.478 -0.498,-5.02 -0.958,0.462 -0.5,4.802 -0.5,4.802 L 1.251,-0.09 c 0,0 0,-3.947 0.211,-4.159 0.21,-0.209 -0.748,0 -0.748,0 v 4.153 C 0.714,0.293 0,0 0,0"
             style="fill:#000000;fill-opacity:1;fill-rule:nonzero;stroke:none"
             id="path78" /></g><g
           id="g80"
           transform="translate(7061.5908,7236.5762)"><path
             d="m 0,0 c 0,0 -0.613,-1.38 -0.613,-15.518 0,-0.572 1.277,-1.05 1.416,-0.572 0.113,0.384 -0.133,15.495 0.73,16.357"
             style="fill:#000000;fill-opacity:1;fill-rule:nonzero;stroke:none"
             id="path82" /></g><g
           id="g84"
           transform="translate(7062.6377,7206.4111)"><path
             d="m 0,0 c -1.891,0 -3.422,1.874 -3.422,4.188 0,2.314 1.531,4.19 3.422,4.19 1.891,0 3.423,-1.876 3.423,-4.19 C 3.423,1.874 1.891,0 0,0 M 5.313,4.289 C 4.292,9.143 2.083,9.833 2.083,9.833 l -0.295,3.242 -2.006,1.584 -1.442,-0.012 c 0,0 -2.017,-0.141 -2.017,-1.111 V 9.755 c 0,0 -4.96,-5.594 2.145,-11.389 1.125,-0.921 4.649,-0.409 4.649,-0.409 0,0 3.217,1.48 2.196,6.332"
             style="fill:#000000;fill-opacity:1;fill-rule:nonzero;stroke:none"
             id="path86" /></g></g></g><g
       id="g88"><g
         id="g90"
         clip-path="url(#clipPath94)"><g
           id="g96"
           transform="translate(7527.4941,7088.3076)"><path
             d="m 0,0 c -1.101,-0.008 -2.864,-0.266 -3.92,-0.574 0,0 -1.174,-0.344 0.155,-4.737 1.409,-4.65 2.31,-5.293 2.94,-5.293 h 14.888 c 1.391,0 6.887,2.784 7.139,5.883 0.254,3.1 3.572,2.823 3.572,2.823 1.096,-0.092 1.993,-1.067 1.993,-2.166 v -3.463 c 0,-1.1 0.67,-2 1.488,-2 0.817,0 1.498,0.9 1.513,2 l 0.073,5.738 c 0.014,1.1 -0.873,1.994 -1.974,1.986 z"
             style="fill:#000000;fill-opacity:1;fill-rule:nonzero;stroke:none"
             id="path98" /></g><g
           id="g100"
           transform="translate(7454.1094,7093.3799)"><path
             d="m 0,0 c -1.091,0.145 -2.865,0.441 -3.943,0.66 0,0 -3.827,0.772 -4.111,-2.99 -0.285,-3.764 1.1,-6.668 1.1,-6.668 0.473,-0.994 1.439,-2.494 2.148,-3.336 0,0 0.737,-0.875 10.602,-0.623 9.865,0.256 14.734,1.268 15.305,2.91 0.568,1.645 5.794,2.287 5.794,2.287 1.091,0.135 1.93,-0.654 1.862,-1.752 l -0.072,-1.193 c -0.068,-1.098 0.532,-1.996 1.332,-1.996 0.8,0 1.455,0.9 1.455,2 v 4.537 c 0,1.1 -0.893,2.117 -1.984,2.262 z"
             style="fill:#000000;fill-opacity:1;fill-rule:nonzero;stroke:none"
             id="path102" /></g><g
           id="g104"
           transform="translate(7565.585,7249.915)"><path
             d="m 0,0 c -0.828,3.007 -2.752,14.514 -2.752,20.49 0,5.977 0.663,27.985 -1.14,32.254 -1.801,4.269 -3.763,16.063 -4.268,18.971 -0.506,2.91 0,11.637 -2.151,15.812 -2.15,4.173 -3.034,20.869 -4.046,24.916 -1.012,4.049 -4.211,7.997 -4.211,7.997 -0.694,0.855 -1.897,2.191 -2.674,2.968 0,0 -0.769,0.768 2.836,-1.51 3.605,-2.275 0.951,0.95 -4.032,5.93 -4.98,4.981 -4.599,4.602 -3.461,4.602 1.138,0 2.522,-1.117 2.522,-1.117 0.856,-0.691 0.92,-0.62 0.143,0.158 l -3.235,3.234 c -0.949,0.949 -3.131,7.969 -0.379,7.399 2.75,-0.569 1.106,5.029 1.422,5.978 0.316,0.947 0.569,-0.949 1.139,-0.381 0.57,0.57 -1.139,3.511 -2.846,4.174 -1.708,0.665 -1.138,4.555 0.57,4.555 1.706,0 0.142,4.107 0.142,4.107 -0.392,1.027 -0.69,2.769 -0.663,3.868 0,0 0.189,7.677 0.189,8.388 0,0.713 -1.424,1.423 -8.207,8.205 -6.783,6.783 -16.127,0 -17.455,0 -1.328,0 -6.325,-8.519 -6.325,-8.519 -0.556,-0.949 -1.004,-2.625 -0.994,-3.725 0,0 0.079,-8.973 -0.585,-9.637 -2.343,-2.342 0,-3.035 -1.455,-5.691 -1.455,-2.657 -1.772,-16.759 -1.772,-17.772 0,-1.011 -0.631,-1.897 0.856,-0.79 1.485,1.107 1.105,-1.107 0.283,-1.929 -0.824,-0.824 -1.018,-4.564 -1.018,-4.564 -0.058,-1.099 -0.115,-2.045 -0.128,-2.101 -0.014,-0.057 0.013,-0.104 0.058,-0.104 0.046,0.001 -0.728,-0.052 -1.826,-0.117 0,0 -4.287,-0.254 -9.228,-2.475 -4.364,-1.959 -2.592,-18.719 -2.592,-18.719 -8.412,-7.146 -11.912,-15.919 -4.395,-25.415 2.807,-3.541 3.541,-12.75 3.541,-12.75 0.087,-1.096 0.055,-2.887 -0.072,-3.98 0,0 -4.102,-35.392 -5.525,-39.786 -0.973,-3.004 0.821,-2.813 0.157,-6.418 -0.664,-3.606 0.38,-23.053 0.38,-24.381 0,-1.328 0.474,-4.838 1.992,-7.682 1.517,-2.847 1.918,-0.64 1.918,-0.64 0.197,1.082 1.258,1.939 2.357,1.906 0,0 1.131,-0.035 0.563,1.77 -0.569,1.801 -0.644,6.629 -0.284,5.689 0.505,-1.328 2.419,0.428 0.19,2.658 -2.229,2.229 -0.664,12.615 0.805,10.244 1.471,-2.371 0,-5.361 2.894,-8.252 2.893,-2.894 3.035,0.853 3.035,1.993 0,1.138 -1.614,5.69 -2.371,11.384 -0.759,5.69 -2.18,5.809 -2.18,5.809 -1.097,0.092 -1.842,1.053 -1.657,2.137 0,0 0.328,1.918 0.328,4.384 0,2.467 3.603,9.867 4.553,14.514 0.949,4.649 1.208,3.645 1.208,3.645 0.275,-1.065 1.399,-1.969 2.498,-2.008 0,0 48.373,-1.731 45.528,2.254 -2.848,3.984 -12.191,12.474 -12.191,24.9 0,12.429 5.978,23.337 6.499,23.858 0.522,0.521 8.537,-23.146 8.537,-26.277 0,-3.13 2.847,-21.153 4.871,-27.731 2.022,-6.578 4.045,-22.12 3.097,-23.068 -3.284,-3.284 -2.276,-13.423 -2.276,-15.321 0,-1.896 -1.518,-6.592 1.613,-7.35 3.131,-0.759 1.804,3.746 2.847,7.254 1.044,3.512 1.231,1.237 1.231,-4.267 0,-5.501 -7.256,-1.707 -7.256,-6.309 0,-4.599 1.851,-1.849 1.851,-3.842 0,-1.992 1.065,-2.42 2.087,-2.086 0.982,0.322 7.251,5.03 9.105,8.062 1.538,2.516 1.424,4.412 1.424,6.024 0,0.522 0.9,2.325 0.381,4.223"
             style="fill:#000000;fill-opacity:1;fill-rule:nonzero;stroke:none"
             id="path106" /></g><g
           id="g108"
           transform="translate(7528.6416,7380.9346)"><path
             d="m 0,0 c 1.082,-0.198 1.242,-0.895 0.355,-1.547 0,0 -2.687,-1.976 -5.722,-16.775 -3.036,-14.799 -2.613,-24.944 -2.613,-24.944 0.044,-1.098 0.98,-1.937 2.078,-1.865 0,0 3.222,0.215 10.784,-6.076 -0.245,-0.904 -1.13,-1.059 -1.966,-0.344 0,0 -6.006,5.149 -11.319,4.643 -5.313,-0.504 -15.558,-36.047 -14.167,-39.716 1.392,-3.669 11.763,-3.794 16.443,-2.909 4.68,0.886 15.307,5.651 18.973,3.267 3.669,-2.381 13.252,-15.726 15.369,-23.125 1.974,-6.908 0.13,-25.963 0.13,-25.963 -0.107,-1.093 -0.029,-2.875 0.173,-3.957 0,0 3.427,-18.397 2.163,-29.656 -1.265,-11.256 4.552,-19.982 7.084,-27.193 2.529,-7.209 2.401,-17.834 0.252,-43.637 -2.151,-25.803 -1.011,-54.01 -1.011,-55.402 0,-1.389 -14.547,-5.184 -21.629,-1.389 -7.084,3.793 -16.254,2.719 -17.329,3.793 -1.075,1.076 9.991,18.215 12.141,20.365 2.152,2.149 0.973,11.379 4.049,18.846 0.885,2.15 2.389,24.533 2.908,33.52 0.547,9.455 -1.896,16.191 -1.138,18.972 0.76,2.781 -8.348,14.164 -10.75,26.689 -2.403,12.52 -9.613,16.947 -9.613,28.204 0,11.258 -18.341,-33.772 -23.653,-40.223 -5.312,-6.449 -3.162,-16.568 -3.162,-19.224 0,-2.657 -2.848,-15.209 -3.668,-24.538 -0.588,-6.654 0.252,-21.63 -2.783,-32.254 -3.035,-10.625 -3.035,-33.923 -3.035,-33.923 0,-1.1 -0.894,-2.112 -1.985,-2.25 0,0 -26.08,-3.284 -36.594,11.002 -2.76,3.75 6.203,3.046 7.21,6.197 2.386,7.471 15.178,67.164 17.202,77.539 2.023,10.371 -0.253,9.359 2.023,20.994 2.278,11.638 14.167,51.859 21.503,59.194 7.336,7.336 1.283,20.318 0.758,22.009 -0.663,2.141 -4.268,8.192 -2.402,11.447 1.865,3.257 -7.669,20.2 -8.094,23.907 -0.428,3.705 -1.58,10.956 -7.336,21.603 -5.756,10.65 8.031,17.826 8.031,18.555 0,0.726 18.259,22.115 18.259,22.115 0.714,0.836 1.843,1.628 2.508,1.758 0.665,0.131 0.669,-0.482 0.01,-1.363 0,0 -16.446,-21.972 -18.154,-23.68 -1.707,-1.707 -8.253,-6.546 -2.465,-21.154 5.785,-14.609 8.158,-30.547 9.58,-31.971 1.422,-1.422 1.899,-0.094 1.422,2.088 -0.472,2.183 -0.808,34.8 -0.472,37.662 0.38,3.223 0.663,11.098 16.126,25.043 3.637,3.278 11.954,15.746 13.09,15.746 z"
             style="fill:#ffffff;fill-opacity:1;fill-rule:nonzero;stroke:none"
             id="path110" /></g><g
           id="g112"
           transform="translate(7528.6416,7380.9346)"><path
             d="m 0,0 c 1.082,-0.198 1.242,-0.895 0.355,-1.547 0,0 -2.687,-1.976 -5.722,-16.775 -3.036,-14.799 -2.613,-24.944 -2.613,-24.944 0.044,-1.098 0.98,-1.937 2.078,-1.865 0,0 3.222,0.215 10.784,-6.076 -0.245,-0.904 -1.13,-1.059 -1.966,-0.344 0,0 -6.006,5.149 -11.319,4.643 -5.313,-0.504 -15.558,-36.047 -14.167,-39.716 1.392,-3.669 11.763,-3.794 16.443,-2.909 4.68,0.886 15.307,5.651 18.973,3.267 3.669,-2.381 13.252,-15.726 15.369,-23.125 1.974,-6.908 0.13,-25.963 0.13,-25.963 -0.107,-1.093 -0.029,-2.875 0.173,-3.957 0,0 3.427,-18.397 2.163,-29.656 -1.265,-11.256 4.552,-19.982 7.084,-27.193 2.529,-7.209 2.401,-17.834 0.252,-43.637 -2.151,-25.803 -1.011,-54.01 -1.011,-55.402 0,-1.389 -14.547,-5.184 -21.629,-1.389 -7.084,3.793 -16.254,2.719 -17.329,3.793 -1.075,1.076 9.991,18.215 12.141,20.365 2.152,2.149 0.973,11.379 4.049,18.846 0.885,2.15 2.389,24.533 2.908,33.52 0.547,9.455 -1.896,16.191 -1.138,18.972 0.76,2.781 -8.348,14.164 -10.75,26.689 -2.403,12.52 -9.613,16.947 -9.613,28.204 0,11.258 -18.341,-33.772 -23.653,-40.223 -5.312,-6.449 -3.162,-16.568 -3.162,-19.224 0,-2.657 -2.848,-15.209 -3.668,-24.538 -0.588,-6.654 0.252,-21.63 -2.783,-32.254 -3.035,-10.625 -3.035,-33.923 -3.035,-33.923 0,-1.1 -0.894,-2.112 -1.985,-2.25 0,0 -26.08,-3.284 -36.594,11.002 -2.76,3.75 6.203,3.046 7.21,6.197 2.386,7.471 15.178,67.164 17.202,77.539 2.023,10.371 -0.253,9.359 2.023,20.994 2.278,11.638 14.167,51.859 21.503,59.194 7.336,7.336 1.283,20.318 0.758,22.009 -0.663,2.141 -4.268,8.192 -2.402,11.447 1.865,3.257 -7.669,20.2 -8.094,23.907 -0.428,3.705 -1.58,10.956 -7.336,21.603 -5.756,10.65 8.031,17.826 8.031,18.555 0,0.726 18.259,22.115 18.259,22.115 0.714,0.836 1.843,1.628 2.508,1.758 0.665,0.131 0.669,-0.482 0.01,-1.363 0,0 -16.446,-21.972 -18.154,-23.68 -1.707,-1.707 -8.253,-6.546 -2.465,-21.154 5.785,-14.609 8.158,-30.547 9.58,-31.971 1.422,-1.422 1.899,-0.094 1.422,2.088 -0.472,2.183 -0.808,34.8 -0.472,37.662 0.38,3.223 0.663,11.098 16.126,25.043 3.637,3.278 11.954,15.746 13.09,15.746 z"
             style="fill:none;stroke:#000000;stroke-width:1;stroke-linecap:butt;stroke-linejoin:miter;stroke-miterlimit:4;stroke-dasharray:none;stroke-opacity:1"
             id="path114" /></g><g
           id="g116"
           transform="translate(7538.5078,7413.2158)"><path
             d="m 0,0 c -1.88,2.222 -12.751,13.604 -28.368,0.977 -1.483,-1.2 -3.009,-2.615 -4.574,-4.276 v 8.5 c 0,1.1 0.201,2.877 0.446,3.949 0,0 2.922,12.762 17.214,11.562 C -0.987,19.51 -0.173,10.05 0.107,9.771 0.386,9.492 0.311,1.643 0.311,1.643 0.3,0.542 0.247,-0.299 0.194,-0.227 Z"
             style="fill:#ffffff;fill-opacity:1;fill-rule:nonzero;stroke:none"
             id="path118" /></g><g
           id="g120"
           transform="translate(7538.5078,7413.2158)"><path
             d="m 0,0 c -1.88,2.222 -12.751,13.604 -28.368,0.977 -1.483,-1.2 -3.009,-2.615 -4.574,-4.276 v 8.5 c 0,1.1 0.201,2.877 0.446,3.949 0,0 2.922,12.762 17.214,11.562 C -0.987,19.51 -0.173,10.05 0.107,9.771 0.386,9.492 0.311,1.643 0.311,1.643 0.3,0.542 0.247,-0.299 0.194,-0.227 Z"
             style="fill:none;stroke:#000000;stroke-width:1;stroke-linecap:butt;stroke-linejoin:miter;stroke-miterlimit:4;stroke-dasharray:none;stroke-opacity:1"
             id="path122" /></g><g
           id="g124"
           transform="translate(7539.5771,7409.5342)"><path
             d="m 0,0 c 0.291,-1.743 -0.524,-3.032 -1.504,-0.107 -1.707,5.092 -8.538,10.767 -20.256,2.183 -11.714,-8.586 -8.154,2.192 -7.917,2.387 0.239,0.195 15.303,14.293 28.9,-1 0,0 0.533,-1.993 0.777,-3.463"
             style="fill:#ffffff;fill-opacity:1;fill-rule:nonzero;stroke:none"
             id="path126" /></g><g
           id="g128"
           transform="translate(7539.5771,7409.5342)"><path
             d="m 0,0 c 0.291,-1.743 -0.524,-3.032 -1.504,-0.107 -1.707,5.092 -8.538,10.767 -20.256,2.183 -11.714,-8.586 -8.154,2.192 -7.917,2.387 0.239,0.195 15.303,14.293 28.9,-1 0,0 0.533,-1.993 0.777,-3.463 z"
             style="fill:none;stroke:#000000;stroke-width:1;stroke-linecap:butt;stroke-linejoin:miter;stroke-miterlimit:4;stroke-dasharray:none;stroke-opacity:1"
             id="path130" /></g><g
           id="g132"
           transform="translate(7509.2324,7411.251)"><path
             d="m 0,0 c 0,0 0.236,-4.264 5.534,-0.543 4.871,3.419 17.711,12.237 23.733,-0.521 1.441,-3.053 0.963,-0.271 0.963,-0.017"
             style="fill:none;stroke:#000000;stroke-width:1;stroke-linecap:butt;stroke-linejoin:miter;stroke-miterlimit:4;stroke-dasharray:none;stroke-opacity:1"
             id="path134" /></g></g></g><g
       id="g136"><g
         id="g138"
         clip-path="url(#clipPath142)"><g
           id="g144"
           transform="translate(7051.7959,7615.8438)"><path
             d="M 0,0 C 0.104,0 0.284,0.037 0.5,0.108 0.073,0.017 -0.175,0 0,0 m -68.828,-109.083 c -0.462,-2.538 -2.308,-4.385 -2.308,-4.385 0,0 -0.975,2.272 -4.384,7.385 -0.923,1.385 -1.198,3.441 -1.846,5.232 -1.212,3.346 -2.077,11.095 -1.847,13.692 0.622,6.991 0,27.461 -0.46,32.076 -0.462,4.616 0.23,17.77 0.23,17.77 0,0 1.615,-14.077 3.462,-18.461 5.253,-12.479 6.923,-41.308 7.614,-43.154 0.693,-1.847 0,-7.616 -0.461,-10.155 M 4.69,-82.69 c -1.134,3.916 -2.903,8.501 -3.461,11.768 -0.826,4.839 -2.65,10.151 -7.269,16.959 -1.326,1.957 -1.385,27.692 -1.385,27.692 0,0 2.078,2.077 2.078,5.883 0,3.809 3.461,-2.076 1.73,2.77 l -1.73,4.846 c 0,0 1.73,5.192 3.116,5.192 1.383,0 0,3.115 0,3.115 0,0 3.576,3.233 3.96,-2.633 0.043,-0.637 -0.346,-2.364 -0.979,-2.71 -0.635,-0.346 2.941,0.807 2.075,4.788 -0.864,3.98 -3.807,3 -4.037,3.52 -0.231,0.519 -0.405,5.308 -0.405,6.173 0,0.865 3.35,0.716 4.096,-1.213 C 3.236,1.508 1.479,0.434 0.5,0.108 1.481,0.318 3.42,0.926 3.46,2.653 3.519,5.134 0.98,6.519 -0.405,6.519 h -1.904 v 0.634 c 0,0 2.655,2.384 3.75,-0.692 0,0 -0.011,0.719 -0.307,1.133 -0.712,1.001 -2.173,0.482 -2.346,0.482 0,0 0.211,0.635 0.403,6.635 0.299,9.348 0.231,10.615 -0.346,11.653 -0.577,1.04 -3.115,1.04 -3.462,3.115 -0.345,2.079 1.039,1.328 0.405,4.905 -0.635,3.577 -1.443,1.731 -1.905,3.173 -0.461,1.442 -2.249,9.423 -3.941,13.269 -1.693,3.847 -2.078,14.923 -6.77,18.615 -4.149,3.264 -7.923,3.769 -7.923,3.769 0,0 -0.999,-0.231 -3.923,2.848 -2.923,3.076 -18.307,2.153 -24.154,-4 -5.846,-6.155 -9.077,-15.848 -9.692,-23.231 -0.615,-7.385 -3.847,-9.693 -3.847,-13.385 0,-3.692 1.385,-2.769 0.308,-6.463 -1.077,-3.691 -7.23,-6.615 -3.692,-15.076 0,0 -3.076,-1.384 -3.846,-1.384 -0.769,0 -17.846,5.231 -17.539,-16.462 0.308,-21.692 -1.384,-24.616 -1.537,-28.154 -0.154,-3.539 0.461,-16.461 0.153,-21.846 -0.308,-5.384 0.726,-28.041 3.539,-39.231 0.765,-3.041 1.099,-5.819 1.35,-8.615 0.247,-2.769 0.803,-3.692 1.419,-6.77 0.615,-3.077 -0.462,-11.078 0.462,-14.461 0.922,-3.384 1.23,-10.461 2.461,-14.77 1.23,-4.307 -2.016,-7.898 -2.016,-7.898 l 35.652,-0.346 c 0,0 10.786,20.776 11.077,26.306 0.037,0.709 6.902,-1.585 8.749,1.76 0.161,0.296 0.604,-0.388 0.05,-3.878 -0.608,-3.823 2.2,-15.044 5.776,-24.332 l 27.999,-0.202 0.347,31.498 c 0,0 2.463,7.6 2.596,13.107 0.098,4.051 -0.098,11.649 -2.251,19.085"
             style="fill:#020000;fill-opacity:1;fill-rule:nonzero;stroke:none"
             id="path146" /></g><g
           id="g148"
           transform="translate(7028.7373,7582.6841)"><path
             d="M 0,0 C -0.45,0.643 -2.923,-19.076 2,-24.307 4.47,-26.933 1.077,-1.538 0,0"
             style="fill:#ffffff;fill-opacity:1;fill-rule:nonzero;stroke:none"
             id="path150" /></g><g
           id="g152"
           transform="translate(6995.6836,7574.3726)"><path
             d="m 0,0 c -2.064,0 -3.738,1.913 -3.738,4.271 0,2.358 1.674,4.271 3.738,4.271 2.064,0 3.737,-1.913 3.737,-4.271 C 3.737,1.913 2.064,0 0,0 m 54.146,-51.572 c 0,0 -3.192,8.978 -2.828,7.121 0.468,-2.39 -3.418,-3.864 -5.66,-5.039 -2.243,-1.175 -12.983,-5.233 -15.692,-2.764 -18.317,16.698 -25.577,45.955 -26.111,48.41 -0.533,2.456 -4.057,4.378 9.503,5.765 14.724,1.508 19.754,6.942 19.754,6.942 0,0 0.854,6.086 0.854,9.395 0,3.31 -7.83,17.512 -8.435,18.117 -0.605,0.604 -0.997,20.786 -0.997,20.786 l -1.921,-0.286 c 0,0 0.783,-20.572 0.783,-20.856 0,-0.286 -1.852,-3.204 -9.041,-7.546 C 7.166,24.131 1.115,10.535 1.115,10.535 h -3.702 c -0.569,0 -2.419,7.403 -7.046,11.105 -4.481,3.584 -7.973,13.097 -5.909,14.236 2.065,1.14 9.61,16.799 9.61,16.799 0,0 -1.779,0.997 -1.779,0.571 0,-0.428 -3.488,-7.332 -11.603,-20.146 -8.115,-12.813 -7.795,-13.987 -6.941,-22.316 0.854,-8.328 10.999,-10.997 18.472,-10.997 7.475,0 5.553,-2.777 6.833,-6.407 1.282,-3.63 7.048,-52.533 0.855,-54.028 -6.193,-1.495 -12.177,3.249 -12.177,3.249 l -0.443,-10.212 c 0,0 0.021,-3.501 9.097,-1.686 9.076,1.816 17.191,-8.056 21.154,-8.96 3.963,-0.904 8.034,-0.116 8.982,1.584 0.569,1.018 5.935,15.153 10.01,15.704 19.21,2.601 17.618,9.397 17.618,9.397"
             style="fill:#f9f9f9;fill-opacity:1;fill-rule:nonzero;stroke:none"
             id="path154" /></g><g
           id="g156"
           transform="translate(7001.1953,7558.0713)"><path
             d="m 0,0 c 0,-1.416 -0.893,-2.563 -1.992,-2.563 -1.102,0 -1.994,1.147 -1.994,2.563 0,1.416 0.892,2.563 1.994,2.563 C -0.893,2.563 0,1.416 0,0"
             style="fill:#020000;fill-opacity:1;fill-rule:nonzero;stroke:none"
             id="path158" /></g><g
           id="g160"
           transform="translate(7006.124,7547.252)"><path
             d="m 0,0 c 0,-1.259 -0.733,-2.278 -1.637,-2.278 -0.905,0 -1.638,1.019 -1.638,2.278 0,1.257 0.733,2.278 1.638,2.278 C -0.733,2.278 0,1.257 0,0"
             style="fill:#020000;fill-opacity:1;fill-rule:nonzero;stroke:none"
             id="path162" /></g><g
           id="g164"
           transform="translate(7004.1304,7537.2144)"><path
             d="m 0,0 c 0,-1.139 -0.829,-2.063 -1.851,-2.063 -1.022,0 -1.85,0.924 -1.85,2.063 0,1.141 0.828,2.065 1.85,2.065 C -0.829,2.065 0,1.141 0,0"
             style="fill:#020000;fill-opacity:1;fill-rule:nonzero;stroke:none"
             id="path166" /></g><g
           id="g168"
           transform="translate(7011.249,7533.3706)"><path
             d="m 0,0 c 0,-1.376 -0.701,-2.491 -1.566,-2.491 -0.865,0 -1.566,1.115 -1.566,2.491 0,1.376 0.701,2.492 1.566,2.492 C -0.701,2.492 0,1.376 0,0"
             style="fill:#020000;fill-opacity:1;fill-rule:nonzero;stroke:none"
             id="path170" /></g><g
           id="g172"
           transform="translate(7007.4053,7525.3989)"><path
             d="m 0,0 c 0,-1.456 -0.924,-2.634 -2.064,-2.634 -1.141,0 -2.065,1.178 -2.065,2.634 0,1.455 0.924,2.634 2.065,2.634 C -0.924,2.634 0,1.455 0,0"
             style="fill:#020000;fill-opacity:1;fill-rule:nonzero;stroke:none"
             id="path174" /></g><g
           id="g176"
           transform="translate(7001.1411,7546.1304)"><path
             d="m 0,0 c 0,-0.855 -0.585,-1.548 -1.308,-1.548 -0.723,0 -1.309,0.693 -1.309,1.548 0,0.855 0.586,1.548 1.309,1.548 C -0.585,1.548 0,0.855 0,0"
             style="fill:#020000;fill-opacity:1;fill-rule:nonzero;stroke:none"
             id="path178" /></g></g></g><g
       id="g180"><g
         id="g182"
         clip-path="url(#clipPath186)"><g
           id="g188"
           transform="translate(7220.876,7531.0908)"><path
             d="m 0,0 c -1.563,-0.711 -2.507,-1.764 -2.507,-1.764 -0.765,9.366 -0.461,8.822 0.178,12.982 0.641,4.161 1.547,10.72 0.906,15.52 -0.64,4.801 -0.303,10.697 0.747,12.268 C 4.948,47.42 6.72,63.66 6.586,60.984 6.453,58.309 8.952,48.05 9.484,46.66 9.755,45.956 10.202,44.34 9.671,42.847 9.116,41.283 5.085,18.311 5.085,17.352 5.085,16.392 1.564,0.711 0,0 m -43.593,39.965 c -5.525,-5.523 -9.17,-8.488 -9.672,-8.533 -1.913,-0.168 -9.636,-6.791 -10.383,-6.045 -0.747,0.747 -5.618,5.619 -7.538,11.805 -1.919,6.188 -3.175,7.936 -4.267,10.455 -1.175,2.71 0,5.158 1.706,5.974 1.541,0.734 7.362,7.359 8.962,8.96 1.599,1.6 12.587,9.387 12.587,9.387 -2.134,-11.948 6.608,-17.927 9.6,-20.908 0.82,-0.816 0,0 0,1.919 0,1.921 1.92,1.282 1.92,-0.211 0,-1.495 1.565,-8.321 -2.915,-12.803 m 68.27,-103.044 c -1.707,3.271 -6.826,19.627 -7.538,21.902 -0.71,2.277 -10.88,22.26 -11.806,23.185 -0.924,0.924 1.885,2.222 1.885,2.809 0,0.586 2.187,7.573 2.187,10.72 0,3.147 2.827,5.493 2.827,8.108 0,2.613 6.757,19.751 8.462,32.694 1.707,12.943 1.991,15.361 1.424,22.899 -0.57,7.539 -3.272,25.744 -3.842,29.016 -0.568,3.27 -1.847,11.662 -5.83,13.085 -3.984,1.422 -5.121,2.417 -8.675,2.417 -3.557,0 -5.994,-0.319 -5.994,-0.319 0,0 3.174,2.212 3.948,2.986 0.774,0.773 -0.04,1.16 -0.427,0.773 -0.387,-0.386 -8.853,-5.946 -11.254,0.187 -2.4,6.134 5.264,-0.356 5.264,19.414 0,19.77 -14.287,29.442 -18.918,29.442 -6.187,0 -20.125,1.28 -26.454,-18.988 -2.1,-6.723 -4.055,-21.495 -3.254,-24.374 0.799,-2.88 1.653,-9.28 4.268,-10.935 2.612,-1.653 -4.583,1.409 -6.482,-10.747 -0.221,-1.415 -5.52,-3.333 -9.574,-10.373 -4.053,-7.041 -6.401,-8.179 -7.859,-9.244 -1.456,-1.067 -11.449,-11.415 -13.083,-15.327 -0.632,-1.508 -2.704,-4.053 -1.352,-8.747 1.352,-4.693 1.25,-3.802 3.129,-7.539 2.481,-4.93 10.098,-15.573 10.098,-17.28 0,-1.706 4.512,-6.711 5.049,-6.898 3.058,-1.066 5.317,0.906 6.063,0.16 0.747,-0.748 3.681,0.373 2.934,-2.187 -0.503,-1.726 -0.854,-7.36 -1.813,-13.156 -0.73,-4.399 0.446,0.987 -0.784,-4.481 -0.226,-1.007 -1.919,-3.204 -1.351,-3.773 0.031,-0.031 0.056,-0.054 0.078,-0.075 -0.157,0.065 -0.433,0.02 -0.433,-0.951 0,-1.779 2.916,-19.131 4.267,-26.668 1.351,-7.538 4.179,-17.761 5.192,-18.775 1.013,-1.013 2.474,-14.728 2.474,-16.003 h 20.139 c 0,0 0.143,5.905 -0.852,8.181 -0.996,2.275 -1.565,17.494 -1.565,18.489 0,0.995 1.707,22.045 0.853,27.593 -0.853,5.546 -1.564,3.414 -1.564,5.546 0,2.134 3.556,3.984 5.405,2.134 1.849,-1.849 2.56,-4.836 2.56,-7.538 0,-2.702 8.781,-22.007 13.085,-26.312 4.053,-4.054 4.907,-7.752 6.117,-9.957 1.498,-2.733 10.808,-16.22 10.808,-18.136 0,-1.918 23.895,0 23.895,0 0,0 0,3.771 -1.707,7.043"
             style="fill:#000000;fill-opacity:1;fill-rule:nonzero;stroke:none"
             id="path190" /></g><g
           id="g192"
           transform="translate(7226.209,7583.2173)"><path
             d="m 0,0 c 0,0 1.28,4.837 1.28,10.24 0,5.406 5.306,5.979 -1.28,17.922 -4.195,7.609 -3.913,4.102 -6.433,9.247 -3.022,6.175 -7.078,14.505 -7.078,14.505 h -2.419 c 0,0 7.967,-16.072 5.336,-23.539 -2.633,-7.466 3.057,-15.289 0.212,-25.282 0,0 4.053,0.036 10.099,-3.093"
             style="fill:#fffbfb;fill-opacity:1;fill-rule:nonzero;stroke:none"
             id="path194" /></g><g
           id="g196"
           transform="translate(7183.0781,7607.6455)"><path
             d="m 0,0 c 0,0 -1.671,0.747 -1.671,6.08 0,5.334 1.352,11.592 1.352,11.592 L -4.658,17.317 -4.089,4.089 c 0,0 -0.071,-2.205 -3.2,-7.68 -3.129,-5.476 -0.711,-12.09 2.063,-15.503 2.773,-3.414 2.346,-4.693 2.346,-4.693 0,0 2.187,-0.801 6.934,-0.108 0,0 11.372,-17.377 -6.826,-35.575 0,0 6.57,-2.399 13.387,-3.52 6.886,-1.133 14.559,-2.187 14.774,-2.187 0.427,0 -6.293,9.814 0.213,26.241 6.507,16.428 7.147,17.601 7.147,17.601 0,0 -10.081,3.894 -28.695,-2.56"
             style="fill:#ffffff;fill-opacity:1;fill-rule:nonzero;stroke:none"
             id="path198" /></g><g
           id="g200"
           transform="translate(7183.0781,7607.6455)"><path
             d="m 0,0 c 0,0 10.508,-2.186 15.788,-5.547 0.587,-0.587 1.226,-0.8 2.027,0 0.799,0.8 13.226,9.494 14.722,9.494 1.492,0 6.719,-11.947 0.212,-25.282 -15.041,3.041 -27.668,-4.34 -27.668,-4.34 0,0 -12.227,15.274 -5.081,25.675"
             style="fill:#ffffff;fill-opacity:1;fill-rule:nonzero;stroke:none"
             id="path202" /></g><g
           id="g204"
           transform="translate(7174.3853,7500.6538)"><path
             d="m 0,0 h -1.013 l 0.052,1.227 h 1.175 z m -0.961,-1.814 v 1.213 L 0,-0.534 0.04,-1.814 Z m 49.251,5.92 c -0.704,-1.324 -6.934,9.619 -6.934,9.619 l 11.093,-0.962 c 0,0 -8.676,12.482 -8.676,18.598 0,6.117 0.76,12.811 0.76,12.811 0,0 -25.635,-4.38 -57.921,13.583 0,0 -3.713,-4.473 -4.282,-7.46 -0.569,-2.987 -2.631,-24.694 -3.342,-24.694 -0.711,0 -1.991,-1.351 -0.284,-2.134 1.706,-0.782 8.746,-3.342 12.588,-2.987 3.839,0.356 0.141,1.494 0.674,3.52 0.534,2.027 1.28,3.698 2.241,4.659 0.96,0.96 4.906,11.734 4.906,14.792 0,3.057 2.135,4.551 2.49,4.551 0.355,0 0.355,0.783 0.355,-1.848 0,-2.633 -1.778,-21.62 -1.778,-28.447 0,-6.827 -0.995,-15.36 -0.995,-15.36 L -1.526,2.524 V -2.17 H 0.82 L 1.389,2.275 H 0.892 c 0,0 1.243,13.156 0.924,14.792 -0.32,1.635 34.277,-1.209 36.41,-3.342 2.134,-2.134 9.383,-10.707 8.393,-11.699 l 3.627,-3.734 1.634,1.637 -1.849,2.124 z"
             style="fill:#ffffff;fill-opacity:1;fill-rule:nonzero;stroke:none"
             id="path206" /></g><g
           id="g208"
           transform="translate(7174.3853,7500.6538)"><path
             d="m 0,0 h -1.013 l 0.052,1.227 h 1.175 z m -0.961,-1.814 v 1.213 L 0,-0.534 0.04,-1.814 Z m 49.251,5.92 c -0.704,-1.324 -6.934,9.619 -6.934,9.619 l 11.093,-0.962 c 0,0 -8.676,12.482 -8.676,18.598 0,6.117 0.76,12.811 0.76,12.811 0,0 -25.635,-4.38 -57.921,13.583 0,0 -3.713,-4.473 -4.282,-7.46 -0.569,-2.987 -2.631,-24.694 -3.342,-24.694 -0.711,0 -1.991,-1.351 -0.284,-2.134 1.706,-0.782 8.746,-3.342 12.588,-2.987 3.839,0.356 0.141,1.494 0.674,3.52 0.534,2.027 1.28,3.698 2.241,4.659 0.96,0.96 4.906,11.734 4.906,14.792 0,3.057 2.135,4.551 2.49,4.551 0.355,0 0.355,0.783 0.355,-1.848 0,-2.633 -1.778,-21.62 -1.778,-28.447 0,-6.827 -0.995,-15.36 -0.995,-15.36 L -1.526,2.524 V -2.17 H 0.82 L 1.389,2.275 H 0.892 c 0,0 1.243,13.156 0.924,14.792 -0.32,1.635 34.277,-1.209 36.41,-3.342 2.134,-2.134 9.383,-10.707 8.393,-11.699 l 3.627,-3.734 1.634,1.637 -1.849,2.124 z"
             style="fill:none;stroke:#000000;stroke-width:1;stroke-linecap:butt;stroke-linejoin:miter;stroke-miterlimit:4;stroke-dasharray:none;stroke-opacity:1"
             id="path210" /></g><g
           id="g212"
           transform="translate(7221.8271,7502.6802)"><path
             d="M 0,0 0.839,0.84 1.587,0.093 0.881,-0.934 Z"
             style="fill:#000000;fill-opacity:1;fill-rule:nonzero;stroke:none"
             id="path214" /></g><g
           id="g216"
           transform="translate(7223.8555,7501.96)"><path
             d="M 0,0 0.972,-0.974 0.238,-1.706 -0.695,-0.773 Z"
             style="fill:#000000;fill-opacity:1;fill-rule:nonzero;stroke:none"
             id="path218" /></g></g></g><g
       id="g220"><g
         id="g222"
         clip-path="url(#clipPath226)"><g
           id="g228"
           transform="translate(7328.5146,7518.375)"><path
             d="m 0,0 c 0,0 -5.354,11.735 -7.305,16.638 -3.716,9.351 -4.981,15.404 -6.694,19.577 -1.623,3.957 -1.572,9.688 0.609,13.088 2.253,3.51 6.492,17.853 6.492,17.853 0,0 3.449,-19.375 7.71,-39.866 C 5.071,6.798 0,0 0,0 m 79.842,-8.127 c -2.206,1.369 -10.88,11.616 -13.821,18.716 0,0 -9.081,18.718 -9.081,21.76 0,4.672 2.284,12.38 2.284,16.535 0,3.345 6.289,1.878 3.652,20.898 -0.209,1.51 5.144,13.479 5.402,16.052 0.86,8.623 -3.004,10.205 -7.076,12.502 -9.08,5.123 -3.501,3.703 0.304,7.508 3.805,3.802 7.809,4.333 -0.761,15.519 -2.014,2.629 0.25,1.276 0.761,1.066 0.456,-0.184 1.819,-1.393 2.472,-2.661 0.853,-1.655 2.359,-3.306 0.976,0.074 -0.691,1.699 -4.361,5.832 -4.818,6.747 -0.455,0.912 1.827,2.23 2.232,4.92 0.406,2.689 -2.95,9.587 -6.161,13.259 -2.248,2.57 -4.03,5.215 -3.382,16.705 0.562,9.926 -11.63,-2.695 -12.4,-0.457 -0.197,0.571 -0.561,2.357 -1.979,2.357 -1.34,0 -2.502,-0.996 -3.119,-1.977 -0.168,-0.268 -0.71,4.945 -1.521,4.945 -1.405,0 -3.214,5.685 -5.783,-3.348 -2.358,-8.293 -12.797,-3.55 -13.308,-15.152 -0.132,-3.031 -0.862,0.38 -4.806,-7.823 -3.943,-8.205 -4.045,-1.41 -5.363,-10.741 -1.318,-9.333 -3.449,-2.638 -3.449,-9.333 0,-6.695 -3.265,-3.34 -3.265,-6.519 0,-2.002 0.411,-2.511 0.411,-2.511 0,0 0.714,0.803 1.028,1.117 2.686,2.686 2.943,3.753 2.13,1.116 -0.811,-2.638 -4.159,-2.738 -9.839,-3.956 -5.682,-1.216 -10.399,-13.086 -10.399,-16.433 0,-3.348 -3.043,-15.368 -5.476,-20.088 -2.436,-4.715 -5.023,-28.302 -5.023,-29.973 0,-1.676 -1.218,-4.718 1.826,-12.174 3.044,-7.457 1.673,-5.325 3.044,-8.826 1.369,-3.499 9.129,-17.499 11.867,-20.236 2.741,-2.741 8.674,-10.349 7.306,-16.892 -1.371,-6.544 0.113,-7.456 0.266,-7.609 0.152,-0.152 -0.229,-7.871 1.331,-7.871 1.56,0 0.203,-4.174 1.56,-4.428 1.356,-0.253 1.711,-3.397 2.194,-3.397 0.482,0 1.647,-13.324 1.647,-13.324 h 72.126 l 2.74,20.957 c 0,0 1.596,1.523 1.596,3.575 0,2.054 2.963,-0.562 2.738,6.239 -0.125,3.881 0.154,0.608 0.991,2.968 0.837,2.358 0.152,8.824 -2.054,10.194"
             style="fill:#050000;fill-opacity:1;fill-rule:nonzero;stroke:none"
             id="path230" /></g><g
           id="g232"
           transform="translate(7347.5078,7666.3311)"><path
             d="m 0,0 c -4.653,-0.97 -4.284,0.051 -4.284,0.051 0,0 0.495,13.719 7.19,19.779 6.162,5.58 7.986,5.325 15.33,5.325 0.217,0 0.202,1.066 0.202,1.066 0,0 2.968,0.177 3.127,-0.184 l 0.07,-1.133 c 0,0 15.166,-3.248 15.851,-10.55 0.684,-7.305 -0.016,-14.871 -0.272,-17.542 -0.908,-1.556 -2.316,-0.566 -2.316,-0.566 0,0 -10.152,9.286 -34.312,3.881 C 0.382,0.081 0.186,0.037 0,0"
             style="fill:#f9f9f9;fill-opacity:1;fill-rule:nonzero;stroke:none"
             id="path234" /></g><g
           id="g236"
           transform="translate(7347.5078,7666.3311)"><path
             d="m 0,0 c -4.653,-0.97 -4.284,0.051 -4.284,0.051 0,0 0.495,13.719 7.19,19.779 6.162,5.58 7.986,5.325 15.33,5.325 0.217,0 0.202,1.066 0.202,1.066 0,0 2.968,0.177 3.127,-0.184 l 0.07,-1.133 c 0,0 15.166,-3.248 15.851,-10.55 0.684,-7.305 -0.016,-14.871 -0.272,-17.542 -0.908,-1.556 -2.316,-0.566 -2.316,-0.566 0,0 -10.152,9.286 -34.312,3.881 C 0.382,0.081 0.186,0.037 0,0 Z"
             style="fill:none;stroke:#050000;stroke-width:1;stroke-linecap:butt;stroke-linejoin:miter;stroke-miterlimit:4;stroke-dasharray:none;stroke-opacity:1"
             id="path238" /></g><g
           id="g240"
           transform="translate(7349.7412,7666.8086)"><path
             d="M 0,0 C 0,0 -0.923,18.297 4.319,22.324"
             style="fill:none;stroke:#050000;stroke-width:1;stroke-linecap:butt;stroke-linejoin:miter;stroke-miterlimit:4;stroke-dasharray:none;stroke-opacity:1"
             id="path242" /></g><g
           id="g244"
           transform="translate(7348.0938,7666.3311)"><path
             d="m 0,0 c 0,0 -3.045,-10.095 5.527,-8.725 8.573,1.37 15.487,6.354 28.251,-2.79 4.987,-3.57 0.535,7.761 0.535,7.761 0,0 -9.765,9.688 -34.313,3.754"
             style="fill:#f9f9f9;fill-opacity:1;fill-rule:nonzero;stroke:none"
             id="path246" /></g><g
           id="g248"
           transform="translate(7348.0938,7666.3311)"><path
             d="m 0,0 c 0,0 -3.045,-10.095 5.527,-8.725 8.573,1.37 15.487,6.354 28.251,-2.79 4.987,-3.57 0.535,7.761 0.535,7.761 0,0 -9.765,9.688 -34.313,3.754 z"
             style="fill:none;stroke:#050000;stroke-width:1;stroke-linecap:butt;stroke-linejoin:miter;stroke-miterlimit:4;stroke-dasharray:none;stroke-opacity:1"
             id="path250" /></g><g
           id="g252"
           transform="translate(7365.7441,7691.4863)"><path
             d="M 0,0 3.398,-0.251"
             style="fill:none;stroke:#050000;stroke-width:1;stroke-linecap:butt;stroke-linejoin:miter;stroke-miterlimit:4;stroke-dasharray:none;stroke-opacity:1"
             id="path254" /></g><g
           id="g256"
           transform="translate(7347.6992,7661.0986)"><path
             d="m 0,0 c 0,0 0.854,-3.52 5.571,-2.656 4.716,0.862 18.561,7.381 29.058,-3.119 2.283,-2.283 1.284,2.314 1.284,3.641"
             style="fill:none;stroke:#050000;stroke-width:1;stroke-linecap:butt;stroke-linejoin:miter;stroke-miterlimit:4;stroke-dasharray:none;stroke-opacity:1"
             id="path258" /></g><g
           id="g260"
           transform="translate(7364.0703,7497.252)"><path
             d="m 0,0 c -1.807,0 -3.271,1.871 -3.271,4.184 0,2.309 1.464,4.183 3.271,4.183 1.807,0 3.271,-1.874 3.271,-4.183 C 3.271,1.871 1.807,0 0,0 M 32.986,19.298 C 31.523,18.708 29.531,14.676 20.96,12.437 12.516,10.23 7.305,8.291 5.935,8.291 c -1.37,0 -1.066,0.306 0.304,3.043 1.368,2.739 5.478,10.196 8.673,23.282 2.299,9.423 9.5,16.443 10.601,36.599 0,0 6.105,5.499 3.044,20.919 -2.703,13.606 -11.667,23.584 -14.1,28.911 l -2.436,5.324 c 0,0.587 -0.824,1.429 -1.83,1.872 l -0.144,0.064 c -1.006,0.443 -1.84,-0.095 -1.854,-1.195 0,0 -0.129,-11.087 0.785,-15.193 C 9.891,107.807 13.085,97.004 9.891,74.18 6.695,51.354 2.188,33.906 0.706,12.8 c -0.184,-2.593 -1.67,-2.43 -1.67,-1.516 0,0.913 -11.818,43.114 -11.818,59.395 0,16.282 0.457,24.524 -2.133,32.256 -0.212,0.63 -1.553,23.264 -1.553,23.264 -0.065,1.098 -1.014,2.079 -2.109,2.181 l -4.235,0.392 c -1.094,0.102 -2.296,-0.662 -2.67,-1.696 0,0 -1.299,-3.596 -5.559,-12.879 -4.261,-9.282 -8.809,-17.648 -6.543,-40.017 0.042,-0.418 -0.15,-0.479 -0.15,-0.479 -1.049,-0.331 -1.819,-1.066 -1.711,-1.634 0.108,-0.568 0.663,-0.908 1.232,-0.754 0.568,0.154 1.24,-0.597 1.492,-1.668 0,0 1.637,-6.968 8.088,-21.234 5.176,-11.443 13.442,-26.975 23.512,-39.258 0.653,-0.799 0.1,-1.824 -0.611,-1.824 -0.71,0 -29.468,1.824 -30.331,4.461 0,0 -1.669,-13.56 -0.759,-19.172 0.761,-4.719 0.577,-6.058 0.577,-6.058 -0.151,-1.09 0.626,-1.998 1.725,-2.019 0,0 31.614,-0.583 34.648,-3.613 0,0 2.18,2.611 4.31,0.48 0.32,0.307 1.197,1.216 1.947,2.021 0,0 6.67,7.149 33.634,10.61 2.95,0.38 -4.269,26.376 -7.033,25.259"
             style="fill:#f6f6f6;fill-opacity:1;fill-rule:nonzero;stroke:none"
             id="path262" /></g><g
           id="g264"
           transform="translate(7364.0703,7497.252)"><path
             d="m 0,0 c -1.807,0 -3.271,1.871 -3.271,4.184 0,2.309 1.464,4.183 3.271,4.183 1.807,0 3.271,-1.874 3.271,-4.183 C 3.271,1.871 1.807,0 0,0 Z M 32.986,19.298 C 31.523,18.708 29.531,14.676 20.96,12.437 12.516,10.23 7.305,8.291 5.935,8.291 c -1.37,0 -1.066,0.306 0.304,3.043 1.368,2.739 5.478,10.196 8.673,23.282 2.299,9.423 9.5,16.443 10.601,36.599 0,0 6.105,5.499 3.044,20.919 -2.703,13.606 -11.667,23.584 -14.1,28.911 l -2.436,5.324 c 0,0.587 -0.824,1.429 -1.83,1.872 l -0.144,0.064 c -1.006,0.443 -1.84,-0.095 -1.854,-1.195 0,0 -0.129,-11.087 0.785,-15.193 C 9.891,107.807 13.085,97.004 9.891,74.18 6.695,51.354 2.188,33.906 0.706,12.8 c -0.184,-2.593 -1.67,-2.43 -1.67,-1.516 0,0.913 -11.818,43.114 -11.818,59.395 0,16.282 0.457,24.524 -2.133,32.256 -0.212,0.63 -1.553,23.264 -1.553,23.264 -0.065,1.098 -1.014,2.079 -2.109,2.181 l -4.235,0.392 c -1.094,0.102 -2.296,-0.662 -2.67,-1.696 0,0 -1.299,-3.596 -5.559,-12.879 -4.261,-9.282 -8.809,-17.648 -6.543,-40.017 0.042,-0.418 -0.15,-0.479 -0.15,-0.479 -1.049,-0.331 -1.819,-1.066 -1.711,-1.634 0.108,-0.568 0.663,-0.908 1.232,-0.754 0.568,0.154 1.24,-0.597 1.492,-1.668 0,0 1.637,-6.968 8.088,-21.234 5.176,-11.443 13.442,-26.975 23.512,-39.258 0.653,-0.799 0.1,-1.824 -0.611,-1.824 -0.71,0 -29.468,1.824 -30.331,4.461 0,0 -1.669,-13.56 -0.759,-19.172 0.761,-4.719 0.577,-6.058 0.577,-6.058 -0.151,-1.09 0.626,-1.998 1.725,-2.019 0,0 31.614,-0.583 34.648,-3.613 0,0 2.18,2.611 4.31,0.48 0.32,0.307 1.197,1.216 1.947,2.021 0,0 6.67,7.149 33.634,10.61 2.95,0.38 -4.269,26.376 -7.033,25.259 z"
             style="fill:none;stroke:#0c0101;stroke-width:1;stroke-linecap:butt;stroke-linejoin:miter;stroke-miterlimit:4;stroke-dasharray:none;stroke-opacity:1"
             id="path266" /></g><g
           id="g268"
           transform="translate(7365.9463,7692.5518)"><path
             d="m 0,0 v -1.081 l 3.063,-0.235 0.064,1.132 z"
             style="fill:#050000;fill-opacity:1;fill-rule:nonzero;stroke:none"
             id="path270" /></g></g></g><g
       id="g272"><g
         id="g274"
         clip-path="url(#clipPath278)"><g
           id="g280"
           transform="translate(7384.1191,7308.5029)"><path
             d="M 0,0 C -3.648,0 -5.223,11.467 -4.887,11.804 -2.412,10.724 0.105,0 0,0 m -53.779,2.438 c -0.673,0 -2.161,-2.163 -2.161,-2.163 0,0 -2.93,-1.151 -2.93,0 0,1.154 -3.331,7.001 -4.275,8.311 -0.352,0.486 -0.072,3.392 0.143,4.202 0.799,2.993 3.107,14.834 3.107,14.834 0.096,-1.59 1.459,0.833 1.409,-0.688 -0.481,-14.458 5.298,-24.496 4.707,-24.496 m 71.628,-74.46 c 1.281,5.123 3.072,23.053 2.177,26.638 -0.896,3.586 -0.896,8.709 -5.252,16.395 -4.356,7.685 -2.241,8.005 -3.778,9.542 0,0 -3.971,6.083 -3.971,8.197 0,2.113 0.625,0.841 1.561,1.13 0.935,0.286 5.987,0.863 5.547,12.382 -0.162,4.262 -3.586,18.699 -2.69,28.433 0.916,0 1.735,0.898 1.819,1.994 0,0 1.641,21.572 -6.43,26.055 -8.068,4.482 -5.408,3.891 -5.408,3.891 1.072,-0.239 2.586,-0.577 3.359,-0.753 0.776,-0.176 0.592,0.056 -0.408,0.515 0,0 -2.922,1.342 -2.922,5.183 0,3.843 3.459,4.867 4.162,8.006 0.705,3.137 -2.816,9.094 -5.57,11.847 -2.754,2.755 -2.566,2.942 -2.566,2.942 0.777,0.778 1.759,1.586 2.181,1.797 l 0.641,-2.176 0.64,-2.178 c 0,-0.493 0.286,-0.044 0.633,1 0,0 0.905,2.713 -0.633,6.3 -1.537,3.586 -3.259,5.31 -3.259,5.31 -0.78,0.777 -1.832,2.177 -2.344,3.111 -0.51,0.934 -1.268,2.53 -1.684,3.549 l -5.021,12.307 c -0.416,1.018 -1.651,1.757 -2.746,1.642 0,0 -21.768,-2.289 -22.985,-3.506 -1.216,-1.217 -2.034,-12.605 -2.034,-12.605 -0.079,-1.098 -0.79,-2.621 -1.581,-3.386 0,0 -6.374,-6.166 -5.861,-11.801 0.441,-4.861 -3.215,-3.909 -4.228,-9.31 -0.161,-0.859 -0.688,-1.959 -0.257,-3.113 0.385,-1.026 2.563,1.538 0.897,-1.538 -1.664,-3.072 -2.881,-4.674 -5.316,-5.316 0,0 -9.157,2.052 -11.077,-8.516 -1.922,-10.565 -3.561,-15.214 -3.561,-15.214 -0.366,-1.037 -0.341,-2.21 0.055,-2.605 0.397,-0.397 0.558,-1.606 0.36,-2.688 0,0 -4.827,-26.273 -4.827,-29.827 0,-3.554 -2.208,-4.419 2.305,-12.776 4.516,-8.357 11.479,-12.151 11.815,-12.487 0.336,-0.336 3.554,-5.476 9.702,2.112 6.147,7.589 1.633,0 1.633,-0.864 0,-0.865 2.401,-19.308 1.057,-20.655 -1.345,-1.342 0.481,-16.807 -2.594,-17.672 -3.074,-0.865 -4.531,-11.466 -4.531,-11.466 -0.148,-1.09 -0.632,-2.806 -1.074,-3.814 0,0 -11.878,-27.082 -11.878,-43.411 0,-0.962 -4.13,-13.162 -4.13,-16.522 0,0 -12.903,-30.099 -12.903,-43.418 0,-13.322 -6.351,-19.894 -8.069,-26.769 -1.025,-4.099 -0.512,-12.808 -1.922,-19.341 -1.408,-6.532 -6.916,-4.096 -7.557,-7.556 -0.639,-3.457 2.178,-2.433 2.69,-2.433 0,0 1.794,-2.945 8.069,-0.64 6.276,2.305 6.726,0.959 6.726,8.26 0,7.302 0.798,6.693 3.488,9.958 0,0 7.173,6.758 7.173,7.174 0,0.416 1.378,4.193 -1.954,6.243 -3.33,2.05 -0.32,5.253 -0.32,6.277 0,1.024 8.454,13.064 10.374,17.801 1.922,4.741 4.163,8.135 6.789,10.758 2.625,2.626 5.684,18.316 5.763,28.434 0.007,0.771 3.267,1.218 10.247,20.365 6.844,18.771 23.053,35.989 23.821,47.9 l 3.333,0.975 c 1.055,0.309 2.055,-0.328 2.219,-1.416 0,0 2.26,-14.928 4.055,-18.129 1.793,-3.204 2.431,-26.002 3.072,-30.099 0.643,-4.098 2.563,-9.094 3.459,-11.528 0.897,-2.434 1.41,-7.685 0.256,-11.142 -1.152,-3.459 -1.279,-25.872 1.025,-33.044 2.305,-7.172 2.817,-18.701 1.537,-22.925 -1.281,-4.227 -1.281,-8.325 -1.281,-9.094 0,-0.77 -2.049,-3.971 -2.049,-11.911 0,-7.942 -1.408,-5.508 -2.304,-9.095 -0.897,-3.584 -2.114,-6.468 0.767,-7.3 2.881,-0.833 16.266,-4.996 15.754,6.148 -0.514,11.143 -1.666,15.371 -1.666,16.777 0,1.41 2.049,4.611 1.026,9.223 -1.026,4.609 0,12.552 2.177,17.419 2.178,4.867 5.804,20.079 6.406,32.275 0.416,8.453 -1.668,18.188 -2.819,21.518 -1.155,3.329 1.408,47.131 2.69,52.256"
             style="fill:#000000;fill-opacity:1;fill-rule:nonzero;stroke:none"
             id="path282" /></g><g
           id="g284"
           transform="translate(7282.0859,7083.0615)"><path
             d="m 0,0 1.152,-4.757 c 0,0 9.478,-0.513 12.68,1.024 3.203,1.537 5.253,5.379 5.253,7.556 0,2.178 -0.513,13.448 3.457,13.448 2.032,0 1.024,-17.29 1.024,-17.29 l 2.168,0.049 0.778,13.896 c 0,4.545 0.426,5.855 1.809,7.237 1.12,1.12 -0.727,8.149 -1.369,8.149 0,0 1.923,-4.211 -1.08,-6.397 C 21.747,19.912 16.522,17.161 16.522,4.08 16.522,-2.323 1.024,-1.023 0,0"
             style="fill:#ffffff;fill-opacity:1;fill-rule:nonzero;stroke:none"
             id="path286" /></g><g
           id="g288"
           transform="translate(7282.0859,7083.0615)"><path
             d="m 0,0 1.152,-4.757 c 0,0 9.478,-0.513 12.68,1.024 3.203,1.537 5.253,5.379 5.253,7.556 0,2.178 -0.513,13.448 3.457,13.448 2.032,0 1.024,-17.29 1.024,-17.29 l 2.168,0.049 0.778,13.896 c 0,4.545 0.426,5.855 1.809,7.237 1.12,1.12 -0.727,8.149 -1.369,8.149 0,0 1.923,-4.211 -1.08,-6.397 C 21.747,19.912 16.522,17.161 16.522,4.08 16.522,-2.323 1.024,-1.023 0,0 Z"
             style="fill:none;stroke:#000000;stroke-width:1;stroke-linecap:butt;stroke-linejoin:miter;stroke-miterlimit:4;stroke-dasharray:none;stroke-opacity:1"
             id="path290" /></g><g
           id="g292"
           transform="translate(7289.1309,7097.5195)"><path
             d="m 0,0 c 0,0 11.203,1.805 11.203,0.708 0,-1.952 -1.707,-2.264 -1.707,-9.678 0,0 -7.26,3.351 -12.175,0.318 0,0 2.679,5.846 2.679,8.652"
             style="fill:#ffffff;fill-opacity:1;fill-rule:nonzero;stroke:none"
             id="path294" /></g><g
           id="g296"
           transform="translate(7289.1309,7097.5195)"><path
             d="m 0,0 c 0,0 11.203,1.805 11.203,0.708 0,-1.952 -1.707,-2.264 -1.707,-9.678 0,0 -7.26,3.351 -12.175,0.318 0,0 2.679,5.846 2.679,8.652 z"
             style="fill:none;stroke:#000000;stroke-width:1;stroke-linecap:butt;stroke-linejoin:miter;stroke-miterlimit:4;stroke-dasharray:none;stroke-opacity:1"
             id="path298" /></g><g
           id="g300"
           transform="translate(7378.4004,7080.8652)"><path
             d="m 0,0 v -5.123 c 0,0 6.404,-2.881 12.809,0 l 0.195,4.8 C 13.004,-0.323 5.123,-2.178 0,0"
             style="fill:#ffffff;fill-opacity:1;fill-rule:nonzero;stroke:none"
             id="path302" /></g><g
           id="g304"
           transform="translate(7378.4004,7080.8652)"><path
             d="m 0,0 v -5.123 c 0,0 6.404,-2.881 12.809,0 l 0.195,4.8 C 13.004,-0.323 5.123,-2.178 0,0 Z"
             style="fill:none;stroke:#000000;stroke-width:1;stroke-linecap:butt;stroke-linejoin:miter;stroke-miterlimit:4;stroke-dasharray:none;stroke-opacity:1"
             id="path306" /></g><g
           id="g308"
           transform="translate(7379.9355,7096.8721)"><path
             d="m 0,0 c 0,0 -1.158,-6.607 -1.744,-7.195 -0.588,-0.586 6.228,-6.25 15.963,-2.664 l -0.645,8.838 c 0,0 -13.57,0.127 -13.572,1.409"
             style="fill:#ffffff;fill-opacity:1;fill-rule:nonzero;stroke:#000000;stroke-width:1;stroke-linecap:butt;stroke-linejoin:miter;stroke-miterlimit:4;stroke-dasharray:none;stroke-opacity:1"
             id="path310" /></g><g
           id="g312"
           transform="translate(7336.3672,7275.7109)"><path
             d="m 0,0 c 0,0 -2.218,-0.984 -2.218,-4.907 0,-5.45 1.978,-11.648 0.155,-12.322 -1.82,-0.678 -5.982,-7.723 -5.597,-14.157 0.385,-6.435 28.185,-0.01 33.172,0.48 4.984,0.492 26.127,5.508 30.482,4.354 4.356,-1.152 13.193,3.843 13.193,3.843 0,0 -1.231,19.141 -3.842,23.406 -3.133,5.112 -4.484,8.741 -4.484,9.509 0,0.771 -1.191,3.67 -2.453,3.67 -1.262,0 6.423,-4.782 -42.119,-14.685 C -4.386,-5.024 0,0 0,0"
             style="fill:#ffffff;fill-opacity:1;fill-rule:nonzero;stroke:none"
             id="path314" /></g><g
           id="g316"
           transform="translate(7336.3672,7275.7109)"><path
             d="m 0,0 c 0,0 -2.218,-0.984 -2.218,-4.907 0,-5.45 1.978,-11.648 0.155,-12.322 -1.82,-0.678 -5.982,-7.723 -5.597,-14.157 0.385,-6.435 28.185,-0.01 33.172,0.48 4.984,0.492 26.127,5.508 30.482,4.354 4.356,-1.152 13.193,3.843 13.193,3.843 0,0 -1.231,19.141 -3.842,23.406 -3.133,5.112 -4.484,8.741 -4.484,9.509 0,0.771 -1.191,3.67 -2.453,3.67 -1.262,0 6.423,-4.782 -42.119,-14.685 C -4.386,-5.024 0,0 0,0 Z"
             style="fill:none;stroke:#000000;stroke-width:1;stroke-linecap:butt;stroke-linejoin:miter;stroke-miterlimit:4;stroke-dasharray:none;stroke-opacity:1"
             id="path318" /></g><g
           id="g320"
           transform="translate(7335.0391,7261.5195)"><path
             d="m 0,0 c 0,0 -2.053,10.805 -0.762,10.805 1.289,0 10.76,-7.347 23.055,-2.544 12.295,4.803 16.137,4.611 20.557,6.532 4.418,1.921 14.023,4.418 16.136,7.493 2.114,3.074 2.313,4.467 2.313,4.467 0,0 3.288,-8.086 4.057,-9.625 C 66.124,15.591 63.983,11.719 56.873,9.604 49.766,7.492 34.012,1.922 32.475,0.383 30.938,-1.153 8.679,-2.02 6.539,-1.153 2.506,0.48 0,0 0,0"
             style="fill:#000000;fill-opacity:1;fill-rule:nonzero;stroke:none"
             id="path322" /></g><g
           id="g324"
           transform="translate(7339.5938,7267.1543)"><path
             d="m 0,0 c 0,-0.743 -0.604,-1.344 -1.346,-1.344 -0.742,0 -1.343,0.601 -1.343,1.344 0,0.742 0.601,1.346 1.343,1.346 C -0.604,1.346 0,0.742 0,0"
             style="fill:#ffffff;fill-opacity:1;fill-rule:nonzero;stroke:none"
             id="path326" /></g><g
           id="g328"
           transform="translate(7339.5938,7267.1543)"><path
             d="m 0,0 c 0,-0.743 -0.604,-1.344 -1.346,-1.344 -0.742,0 -1.343,0.601 -1.343,1.344 0,0.742 0.601,1.346 1.343,1.346 C -0.604,1.346 0,0.742 0,0 Z"
             style="fill:none;stroke:#000000;stroke-width:1;stroke-linecap:butt;stroke-linejoin:miter;stroke-miterlimit:4;stroke-dasharray:none;stroke-opacity:1"
             id="path330" /></g><g
           id="g332"
           transform="translate(7344.4609,7261.9023)"><path
             d="m 0,0 c 0,-0.672 -0.832,-1.215 -1.857,-1.215 -1.026,0 -1.858,0.543 -1.858,1.215 0,0.672 0.832,1.217 1.858,1.217 C -0.832,1.217 0,0.672 0,0"
             style="fill:#ffffff;fill-opacity:1;fill-rule:nonzero;stroke:none"
             id="path334" /></g><g
           id="g336"
           transform="translate(7344.4609,7261.9023)"><path
             d="m 0,0 c 0,-0.672 -0.832,-1.215 -1.857,-1.215 -1.026,0 -1.858,0.543 -1.858,1.215 0,0.672 0.832,1.217 1.858,1.217 C -0.832,1.217 0,0.672 0,0 Z"
             style="fill:none;stroke:#000000;stroke-width:1;stroke-linecap:butt;stroke-linejoin:miter;stroke-miterlimit:4;stroke-dasharray:none;stroke-opacity:1"
             id="path338" /></g><g
           id="g340"
           transform="translate(7346.6699,7265.0898)"><path
             d="m 0,0 c 0,-0.54 -0.639,-0.978 -1.426,-0.978 -0.786,0 -1.424,0.438 -1.424,0.978 0,0.539 0.638,0.977 1.424,0.977 C -0.639,0.977 0,0.539 0,0"
             style="fill:#ffffff;fill-opacity:1;fill-rule:nonzero;stroke:none"
             id="path342" /></g><g
           id="g344"
           transform="translate(7346.6699,7265.0898)"><path
             d="m 0,0 c 0,-0.54 -0.639,-0.978 -1.426,-0.978 -0.786,0 -1.424,0.438 -1.424,0.978 0,0.539 0.638,0.977 1.424,0.977 C -0.639,0.977 0,0.539 0,0 Z"
             style="fill:none;stroke:#000000;stroke-width:1;stroke-linecap:butt;stroke-linejoin:miter;stroke-miterlimit:4;stroke-dasharray:none;stroke-opacity:1"
             id="path346" /></g><g
           id="g348"
           transform="translate(7351.377,7262.2246)"><path
             d="m 0,0 c 0,-0.709 -0.488,-1.283 -1.09,-1.283 -0.601,0 -1.088,0.574 -1.088,1.283 0,0.707 0.487,1.279 1.088,1.279 C -0.488,1.279 0,0.707 0,0"
             style="fill:#ffffff;fill-opacity:1;fill-rule:nonzero;stroke:none"
             id="path350" /></g><g
           id="g352"
           transform="translate(7351.377,7262.2246)"><path
             d="m 0,0 c 0,-0.709 -0.488,-1.283 -1.09,-1.283 -0.601,0 -1.088,0.574 -1.088,1.283 0,0.707 0.487,1.279 1.088,1.279 C -0.488,1.279 0,0.707 0,0 Z"
             style="fill:none;stroke:#000000;stroke-width:1;stroke-linecap:butt;stroke-linejoin:miter;stroke-miterlimit:4;stroke-dasharray:none;stroke-opacity:1"
             id="path354" /></g><g
           id="g356"
           transform="translate(7355.0908,7264.9775)"><path
             d="m 0,0 c 0,-0.602 -0.374,-1.088 -0.833,-1.088 -0.459,0 -0.832,0.486 -0.832,1.088 0,0.601 0.373,1.089 0.832,1.089 C -0.374,1.089 0,0.601 0,0"
             style="fill:#ffffff;fill-opacity:1;fill-rule:nonzero;stroke:none"
             id="path358" /></g><g
           id="g360"
           transform="translate(7355.0908,7264.9775)"><path
             d="m 0,0 c 0,-0.602 -0.374,-1.088 -0.833,-1.088 -0.459,0 -0.832,0.486 -0.832,1.088 0,0.601 0.373,1.089 0.832,1.089 C -0.374,1.089 0,0.601 0,0 Z"
             style="fill:none;stroke:#000000;stroke-width:1;stroke-linecap:butt;stroke-linejoin:miter;stroke-miterlimit:4;stroke-dasharray:none;stroke-opacity:1"
             id="path362" /></g><g
           id="g364"
           transform="translate(7360.5098,7262.2568)"><path
             d="m 0,0 c 0,-0.902 -0.611,-1.633 -1.363,-1.633 -0.756,0 -1.366,0.731 -1.366,1.633 0,0.9 0.61,1.633 1.366,1.633 C -0.611,1.633 0,0.9 0,0"
             style="fill:#ffffff;fill-opacity:1;fill-rule:nonzero;stroke:none"
             id="path366" /></g><g
           id="g368"
           transform="translate(7360.5098,7262.2568)"><path
             d="m 0,0 c 0,-0.902 -0.611,-1.633 -1.363,-1.633 -0.756,0 -1.366,0.731 -1.366,1.633 0,0.9 0.61,1.633 1.366,1.633 C -0.611,1.633 0,0.9 0,0 Z"
             style="fill:none;stroke:#000000;stroke-width:1;stroke-linecap:butt;stroke-linejoin:miter;stroke-miterlimit:4;stroke-dasharray:none;stroke-opacity:1"
             id="path370" /></g><g
           id="g372"
           transform="translate(7363.6719,7267.7949)"><path
             d="m 0,0 c 0,-0.885 -0.746,-1.602 -1.664,-1.602 -0.92,0 -1.666,0.717 -1.666,1.602 0,0.886 0.746,1.601 1.666,1.601 C -0.746,1.601 0,0.886 0,0"
             style="fill:#ffffff;fill-opacity:1;fill-rule:nonzero;stroke:none"
             id="path374" /></g><g
           id="g376"
           transform="translate(7363.6719,7267.7949)"><path
             d="m 0,0 c 0,-0.885 -0.746,-1.602 -1.664,-1.602 -0.92,0 -1.666,0.717 -1.666,1.602 0,0.886 0.746,1.601 1.666,1.601 C -0.746,1.601 0,0.886 0,0 Z"
             style="fill:none;stroke:#000000;stroke-width:1;stroke-linecap:butt;stroke-linejoin:miter;stroke-miterlimit:4;stroke-dasharray:none;stroke-opacity:1"
             id="path378" /></g><g
           id="g380"
           transform="translate(7365.4648,7264.082)"><path
             d="m 0,0 c 0,-0.391 -0.402,-0.705 -0.896,-0.705 -0.496,0 -0.897,0.314 -0.897,0.705 0,0.388 0.401,0.702 0.897,0.702 C -0.402,0.702 0,0.388 0,0"
             style="fill:#ffffff;fill-opacity:1;fill-rule:nonzero;stroke:none"
             id="path382" /></g><g
           id="g384"
           transform="translate(7365.4648,7264.082)"><path
             d="m 0,0 c 0,-0.391 -0.402,-0.705 -0.896,-0.705 -0.496,0 -0.897,0.314 -0.897,0.705 0,0.388 0.401,0.702 0.897,0.702 C -0.402,0.702 0,0.388 0,0 Z"
             style="fill:none;stroke:#000000;stroke-width:1;stroke-linecap:butt;stroke-linejoin:miter;stroke-miterlimit:4;stroke-dasharray:none;stroke-opacity:1"
             id="path386" /></g><g
           id="g388"
           transform="translate(7370.8438,7269.7178)"><path
             d="m 0,0 c 0,-0.815 -0.572,-1.475 -1.279,-1.475 -0.707,0 -1.282,0.66 -1.282,1.475 0,0.813 0.575,1.472 1.282,1.472 C -0.572,1.472 0,0.813 0,0"
             style="fill:#ffffff;fill-opacity:1;fill-rule:nonzero;stroke:none"
             id="path390" /></g><g
           id="g392"
           transform="translate(7370.8438,7269.7178)"><path
             d="m 0,0 c 0,-0.815 -0.572,-1.475 -1.279,-1.475 -0.707,0 -1.282,0.66 -1.282,1.475 0,0.813 0.575,1.472 1.282,1.472 C -0.572,1.472 0,0.813 0,0 Z"
             style="fill:none;stroke:#000000;stroke-width:1;stroke-linecap:butt;stroke-linejoin:miter;stroke-miterlimit:4;stroke-dasharray:none;stroke-opacity:1"
             id="path394" /></g><g
           id="g396"
           transform="translate(7374.2969,7266.2568)"><path
             d="m 0,0 c 0,-0.671 -0.602,-1.214 -1.344,-1.214 -0.74,0 -1.342,0.543 -1.342,1.214 0,0.672 0.602,1.217 1.342,1.217 C -0.602,1.217 0,0.672 0,0"
             style="fill:#ffffff;fill-opacity:1;fill-rule:nonzero;stroke:none"
             id="path398" /></g><g
           id="g400"
           transform="translate(7374.2969,7266.2568)"><path
             d="m 0,0 c 0,-0.671 -0.602,-1.214 -1.344,-1.214 -0.74,0 -1.342,0.543 -1.342,1.214 0,0.672 0.602,1.217 1.342,1.217 C -0.602,1.217 0,0.672 0,0 Z"
             style="fill:none;stroke:#000000;stroke-width:1;stroke-linecap:butt;stroke-linejoin:miter;stroke-miterlimit:4;stroke-dasharray:none;stroke-opacity:1"
             id="path402" /></g><g
           id="g404"
           transform="translate(7376.9902,7271.1895)"><path
             d="m 0,0 c 0,-0.496 -0.459,-0.897 -1.023,-0.897 -0.565,0 -1.024,0.401 -1.024,0.897 0,0.493 0.459,0.896 1.024,0.896 C -0.459,0.896 0,0.493 0,0"
             style="fill:#ffffff;fill-opacity:1;fill-rule:nonzero;stroke:none"
             id="path406" /></g><g
           id="g408"
           transform="translate(7376.9902,7271.1895)"><path
             d="m 0,0 c 0,-0.496 -0.459,-0.897 -1.023,-0.897 -0.565,0 -1.024,0.401 -1.024,0.897 0,0.493 0.459,0.896 1.024,0.896 C -0.459,0.896 0,0.493 0,0 Z"
             style="fill:none;stroke:#000000;stroke-width:1;stroke-linecap:butt;stroke-linejoin:miter;stroke-miterlimit:4;stroke-dasharray:none;stroke-opacity:1"
             id="path410" /></g><g
           id="g412"
           transform="translate(7380.4902,7267.8535)"><path
             d="m 0,0 c 0,-0.287 -0.439,-0.519 -0.98,-0.519 -0.541,0 -0.981,0.232 -0.981,0.519 0,0.285 0.44,0.518 0.981,0.518 C -0.439,0.518 0,0.285 0,0"
             style="fill:#ffffff;fill-opacity:1;fill-rule:nonzero;stroke:none"
             id="path414" /></g><g
           id="g416"
           transform="translate(7380.4902,7267.8535)"><path
             d="m 0,0 c 0,-0.287 -0.439,-0.519 -0.98,-0.519 -0.541,0 -0.981,0.232 -0.981,0.519 0,0.285 0.44,0.518 0.981,0.518 C -0.439,0.518 0,0.285 0,0 Z"
             style="fill:none;stroke:#000000;stroke-width:1;stroke-linecap:butt;stroke-linejoin:miter;stroke-miterlimit:4;stroke-dasharray:none;stroke-opacity:1"
             id="path418" /></g><g
           id="g420"
           transform="translate(7383.8672,7273.0674)"><path
             d="m 0,0 c 0,-1.016 -1.023,-1.838 -2.285,-1.838 -1.262,0 -2.285,0.822 -2.285,1.838 0,1.013 1.023,1.835 2.285,1.835 C -1.023,1.835 0,1.013 0,0"
             style="fill:#ffffff;fill-opacity:1;fill-rule:nonzero;stroke:none"
             id="path422" /></g><g
           id="g424"
           transform="translate(7383.8672,7273.0674)"><path
             d="m 0,0 c 0,-1.016 -1.023,-1.838 -2.285,-1.838 -1.262,0 -2.285,0.822 -2.285,1.838 0,1.013 1.023,1.835 2.285,1.835 C -1.023,1.835 0,1.013 0,0 Z"
             style="fill:none;stroke:#000000;stroke-width:1;stroke-linecap:butt;stroke-linejoin:miter;stroke-miterlimit:4;stroke-dasharray:none;stroke-opacity:1"
             id="path426" /></g><g
           id="g428"
           transform="translate(7387.6387,7270.7412)"><path
             d="m 0,0 c 0,-0.53 -0.434,-0.961 -0.969,-0.961 -0.535,0 -0.969,0.431 -0.969,0.961 0,0.529 0.434,0.96 0.969,0.96 C -0.434,0.96 0,0.529 0,0"
             style="fill:#ffffff;fill-opacity:1;fill-rule:nonzero;stroke:none"
             id="path430" /></g><g
           id="g432"
           transform="translate(7387.6387,7270.7412)"><path
             d="m 0,0 c 0,-0.53 -0.434,-0.961 -0.969,-0.961 -0.535,0 -0.969,0.431 -0.969,0.961 0,0.529 0.434,0.96 0.969,0.96 C -0.434,0.96 0,0.529 0,0 Z"
             style="fill:none;stroke:#000000;stroke-width:1;stroke-linecap:butt;stroke-linejoin:miter;stroke-miterlimit:4;stroke-dasharray:none;stroke-opacity:1"
             id="path434" /></g><g
           id="g436"
           transform="translate(7390.3125,7276.1836)"><path
             d="m 0,0 c 0,-0.849 -0.746,-1.536 -1.666,-1.536 -0.92,0 -1.664,0.687 -1.664,1.536 0,0.85 0.744,1.538 1.664,1.538 C -0.746,1.538 0,0.85 0,0"
             style="fill:#ffffff;fill-opacity:1;fill-rule:nonzero;stroke:none"
             id="path438" /></g><g
           id="g440"
           transform="translate(7390.3125,7276.1836)"><path
             d="m 0,0 c 0,-0.849 -0.746,-1.536 -1.666,-1.536 -0.92,0 -1.664,0.687 -1.664,1.536 0,0.85 0.744,1.538 1.664,1.538 C -0.746,1.538 0,0.85 0,0 Z"
             style="fill:none;stroke:#000000;stroke-width:1;stroke-linecap:butt;stroke-linejoin:miter;stroke-miterlimit:4;stroke-dasharray:none;stroke-opacity:1"
             id="path442" /></g><g
           id="g444"
           transform="translate(7392.875,7274.3916)"><path
             d="m 0,0 c 0,-0.565 -0.26,-1.024 -0.578,-1.024 -0.318,0 -0.576,0.459 -0.576,1.024 0,0.564 0.258,1.023 0.576,1.023 C -0.26,1.023 0,0.564 0,0"
             style="fill:#ffffff;fill-opacity:1;fill-rule:nonzero;stroke:none"
             id="path446" /></g><g
           id="g448"
           transform="translate(7392.875,7274.3916)"><path
             d="m 0,0 c 0,-0.565 -0.26,-1.024 -0.578,-1.024 -0.318,0 -0.576,0.459 -0.576,1.024 0,0.564 0.258,1.023 0.576,1.023 C -0.26,1.023 0,0.564 0,0 Z"
             style="fill:none;stroke:#000000;stroke-width:1;stroke-linecap:butt;stroke-linejoin:miter;stroke-miterlimit:4;stroke-dasharray:none;stroke-opacity:1"
             id="path450" /></g><g
           id="g452"
           transform="translate(7397.9414,7275.499)"><path
             d="m 0,0 c 0,-0.804 -0.818,-1.454 -1.83,-1.454 -1.01,0 -1.83,0.65 -1.83,1.454 0,0.802 0.82,1.452 1.83,1.452 C -0.818,1.452 0,0.802 0,0"
             style="fill:#ffffff;fill-opacity:1;fill-rule:nonzero;stroke:none"
             id="path454" /></g><g
           id="g456"
           transform="translate(7397.9414,7275.499)"><path
             d="m 0,0 c 0,-0.804 -0.818,-1.454 -1.83,-1.454 -1.01,0 -1.83,0.65 -1.83,1.454 0,0.802 0.82,1.452 1.83,1.452 C -0.818,1.452 0,0.802 0,0 Z"
             style="fill:none;stroke:#000000;stroke-width:1;stroke-linecap:butt;stroke-linejoin:miter;stroke-miterlimit:4;stroke-dasharray:none;stroke-opacity:1"
             id="path458" /></g><g
           id="g460"
           transform="translate(7395.9453,7281.2422)"><path
             d="m 0,0 c 0,-0.813 -0.314,-1.472 -0.703,-1.472 -0.389,0 -0.705,0.659 -0.705,1.472 0,0.813 0.316,1.474 0.705,1.474 C -0.314,1.474 0,0.813 0,0"
             style="fill:#ffffff;fill-opacity:1;fill-rule:nonzero;stroke:none"
             id="path462" /></g><g
           id="g464"
           transform="translate(7395.9453,7281.2422)"><path
             d="m 0,0 c 0,-0.813 -0.314,-1.472 -0.703,-1.472 -0.389,0 -0.705,0.659 -0.705,1.472 0,0.813 0.316,1.474 0.705,1.474 C -0.314,1.474 0,0.813 0,0 Z"
             style="fill:none;stroke:#000000;stroke-width:1;stroke-linecap:butt;stroke-linejoin:miter;stroke-miterlimit:4;stroke-dasharray:none;stroke-opacity:1"
             id="path466" /></g><g
           id="g468"
           transform="translate(7359.2227,7269.3135)"><path
             d="m 0,0 -0.449,2.639 c 0,0 3.746,2.017 4.609,1.584 C 5.025,3.792 5.025,1.774 5.025,1.774 L 4.041,0.79 c 0,0 0.072,1.416 -0.648,2.135 C 2.672,3.646 0.703,2.301 0.703,2.301 l 0.432,-2.305"
             style="fill:#000000;fill-opacity:1;fill-rule:nonzero;stroke:none"
             id="path470" /></g><g
           id="g472"
           transform="translate(7360.8779,7261.9023)"><path
             d="m 0,0 0.894,-2.522 c 0,0 4.253,0.064 4.798,0.862 0.543,0.8 -0.439,2.561 -0.439,2.561 l -1.34,0.378 c 0,0 0.754,-1.201 0.475,-2.18 C 4.11,-1.881 1.735,-1.666 1.735,-1.666 L 0.989,0.558"
             style="fill:#000000;fill-opacity:1;fill-rule:nonzero;stroke:none"
             id="path474" /></g><g
           id="g476"
           transform="translate(7339.9766,7373.9072)"><path
             d="m 0,0 -7.428,4.739 c 0,0 -10.156,4.292 -14.877,-7.651 -4.718,-11.946 -4.718,-17.646 -4.718,-17.646 0,0 11.078,-6.658 11.654,-7.235 0.576,-0.576 -2.16,-17.617 1.803,-21.582 1.757,-1.755 -0.457,4.484 23.75,4.484 3.523,0 8.214,-2.707 10.949,-2.882 16.053,-1.035 17.164,-1.409 17.164,-1.409 4.609,2.048 5.379,14.473 5.379,14.473 h 13.576 c 0,0 1.729,24.744 -8.613,29.405 -10.342,4.662 -10.791,4.215 -10.791,4.215 0,0 -14.721,-9.283 -19.02,-24.27 -2.062,-7.197 -2.945,-14.602 -3.714,-15.37 -0.768,-0.768 -4.99,-0.203 -4.99,-0.203 0,0 2.427,10.321 -4.872,23.64 C -2.396,-3.336 0,0 0,0"
             style="fill:#ffffff;fill-opacity:1;fill-rule:nonzero;stroke:none"
             id="path478" /></g><g
           id="g480"
           transform="translate(7339.9766,7373.9072)"><path
             d="m 0,0 -7.428,4.739 c 0,0 -10.156,4.292 -14.877,-7.651 -4.718,-11.946 -4.718,-17.646 -4.718,-17.646 0,0 11.078,-6.658 11.654,-7.235 0.576,-0.576 -2.16,-17.617 1.803,-21.582 1.757,-1.755 -0.457,4.484 23.75,4.484 3.523,0 8.214,-2.707 10.949,-2.882 16.053,-1.035 17.164,-1.409 17.164,-1.409 4.609,2.048 5.379,14.473 5.379,14.473 h 13.576 c 0,0 1.729,24.744 -8.613,29.405 -10.342,4.662 -10.791,4.215 -10.791,4.215 0,0 -14.721,-9.283 -19.02,-24.27 -2.062,-7.197 -2.945,-14.602 -3.714,-15.37 -0.768,-0.768 -4.99,-0.203 -4.99,-0.203 0,0 2.427,10.321 -4.872,23.64 C -2.396,-3.336 0,0 0,0 Z"
             style="fill:none;stroke:#000000;stroke-width:1;stroke-linecap:butt;stroke-linejoin:miter;stroke-miterlimit:4;stroke-dasharray:none;stroke-opacity:1"
             id="path482" /></g><g
           id="g484"
           transform="translate(7349.4883,7387.4824)"><path
             d="m 0,0 c -1.058,0.481 -4.729,-1.09 -8.229,-2.689 -1.296,-0.592 -11.976,-9.798 -11.976,-9.798 0,0 -9.414,-6.852 -3.908,-5.571 5.508,1.28 10.887,0.767 10.887,0.767 l -3.393,-3.394 c 0,0 16.08,-12.177 17.231,-33.822 0,0 1.597,14.867 -2.694,24.538 -4.33,9.755 -5.835,21.935 -3.522,25.936 C -3.234,0.065 0,0 0,0"
             style="fill:#ffffff;fill-opacity:1;fill-rule:nonzero;stroke:none"
             id="path486" /></g><g
           id="g488"
           transform="translate(7349.4883,7387.4824)"><path
             d="m 0,0 c -1.058,0.481 -4.729,-1.09 -8.229,-2.689 -1.296,-0.592 -11.976,-9.798 -11.976,-9.798 0,0 -9.414,-6.852 -3.908,-5.571 5.508,1.28 10.887,0.767 10.887,0.767 l -3.393,-3.394 c 0,0 16.08,-12.177 17.231,-33.822 0,0 1.597,14.867 -2.694,24.538 -4.33,9.755 -5.835,21.935 -3.522,25.936 C -3.234,0.065 0,0 0,0 Z"
             style="fill:none;stroke:#000000;stroke-width:1;stroke-linecap:butt;stroke-linejoin:miter;stroke-miterlimit:4;stroke-dasharray:none;stroke-opacity:1"
             id="path490" /></g><g
           id="g492"
           transform="translate(7371.3555,7383.3857)"><path
             d="m 0,0 c 0,0 8.373,-9.526 -0.896,-14.345 -11.206,-5.828 -13.883,-30.143 -15.369,-35.862 0,0 5.204,28.791 23.31,24.976 0.91,-0.194 -1.664,5.122 -1.664,5.122 0,0 6.68,0.009 11.014,-2.05 5.125,-2.434 0.955,7.283 -2.354,8.804 C 9.99,-11.494 9.35,-3.586 0,0"
             style="fill:#ffffff;fill-opacity:1;fill-rule:nonzero;stroke:none"
             id="path494" /></g><g
           id="g496"
           transform="translate(7371.3555,7383.3857)"><path
             d="m 0,0 c 0,0 8.373,-9.526 -0.896,-14.345 -11.206,-5.828 -13.883,-30.143 -15.369,-35.862 0,0 5.204,28.791 23.31,24.976 0.91,-0.194 -1.664,5.122 -1.664,5.122 0,0 6.68,0.009 11.014,-2.05 5.125,-2.434 0.955,7.283 -2.354,8.804 C 9.99,-11.494 9.35,-3.586 0,0 Z"
             style="fill:none;stroke:#000000;stroke-width:1;stroke-linecap:butt;stroke-linejoin:miter;stroke-miterlimit:4;stroke-dasharray:none;stroke-opacity:1"
             id="path498" /></g><g
           id="g500"
           transform="translate(7344.2451,7410.8242)"><path
             d="m 0,0 3.001,1.314 c 0,0 3.362,-4.707 7.395,-2.115 4.037,2.595 15.906,6.76 23.824,-0.287 4.371,-3.891 0.775,2.701 0.775,2.701 v 13.149 c 0,0 -0.129,9.224 -11.342,9.991 -11.238,0.768 -14.888,-1.154 -14.888,-1.154 0,0 -9.126,-6.626 -9.126,-11.911 C -0.361,6.404 0,0 0,0"
             style="fill:#ffffff;fill-opacity:1;fill-rule:nonzero;stroke:none"
             id="path502" /></g><g
           id="g504"
           transform="translate(7344.2451,7410.8242)"><path
             d="m 0,0 3.001,1.314 c 0,0 3.362,-4.707 7.395,-2.115 4.037,2.595 15.906,6.76 23.824,-0.287 4.371,-3.891 0.775,2.701 0.775,2.701 v 13.149 c 0,0 -0.129,9.224 -11.342,9.991 -11.238,0.768 -14.888,-1.154 -14.888,-1.154 0,0 -9.126,-6.626 -9.126,-11.911 C -0.361,6.404 0,0 0,0 Z"
             style="fill:none;stroke:#000000;stroke-width:1;stroke-linecap:butt;stroke-linejoin:miter;stroke-miterlimit:4;stroke-dasharray:none;stroke-opacity:1"
             id="path506" /></g><g
           id="g508"
           transform="translate(7379.2402,7412.4375)"><path
             d="m 0,0 c 0,0 -9.422,11.901 -31.994,-0.299 0,0 3.947,-3.145 6.099,-1.554 3.059,2.264 15.227,6.894 23.942,1.531 1.195,-0.736 2.209,-2.382 2.596,-2.353 C 1.572,-2.604 0,0 0,0"
             style="fill:#ffffff;fill-opacity:1;fill-rule:nonzero;stroke:#000000;stroke-width:1;stroke-linecap:butt;stroke-linejoin:miter;stroke-miterlimit:4;stroke-dasharray:none;stroke-opacity:1"
             id="path510" /></g><g
           id="g512"
           transform="translate(7353.0098,7434.4229)"><path
             d="m 0,0 c 0,0 -4.899,-6.723 -4.899,-7.779 0,-1.058 -0.865,-9.609 -0.865,-14.505"
             style="fill:none;stroke:#000000;stroke-width:1;stroke-linecap:butt;stroke-linejoin:miter;stroke-miterlimit:4;stroke-dasharray:none;stroke-opacity:1"
             id="path514" /></g><g
           id="g516"
           transform="translate(7360.3047,7435.6982)"><path
             d="M 0,0 V 0.871 L 3.559,1.03 3.687,0.05 Z"
             style="fill:#000000;fill-opacity:1;fill-rule:nonzero;stroke:none"
             id="path518" /></g></g></g><g
       id="g520"><g
         id="g522"
         clip-path="url(#clipPath526)"><g
           id="g528"
           transform="translate(7154.8691,7292.7686)"><path
             d="M 0,0 -0.055,0.748 C -0.089,0.423 -0.063,0.182 0,0"
             style="fill:#000000;fill-opacity:1;fill-rule:nonzero;stroke:none"
             id="path530" /></g><g
           id="g532"
           transform="translate(7190.8018,7121.1113)"><path
             d="M 0,0 C -3.197,3.197 -2.26,17.807 -2.26,17.807 0.283,15.262 1.979,-1.977 0,0 m -2.496,129.585 c -0.285,-0.699 -0.709,-0.699 -0.942,0 -0.234,0.7 0,1.271 0.518,1.271 0.519,0 0.709,-0.571 0.424,-1.271 m -22.657,43.165 c 0,0.69 -5.872,6.375 -7.663,8.164 -1.789,1.789 -6,6.782 -8.008,9.328 -2.574,3.265 -8.44,8.736 -8.949,9.452 -2.167,3.045 1.255,3.894 2.763,6.533 1.508,2.635 10.364,10.361 15.325,15.322 4.962,4.962 6.171,2.433 6.171,2.433 0.475,-0.992 1.076,-2.679 1.334,-3.748 l 3.032,-13.711 c 0.717,-0.833 1.326,-1.538 1.35,-1.565 0.026,-0.028 0.038,-0.043 0.03,-0.033 -0.009,0.009 0.073,-0.805 0.252,-1.89 0,0 0.31,-1.86 0.832,-4.973 3.077,-18.339 -6.469,-26.003 -6.469,-25.312 m 69.15,40.07 c 0,3.203 0.659,6.502 0.095,8.384 -0.567,1.886 -1.226,7.351 -1.226,12.343 0,4.993 0.566,13.188 -2.449,18.558 -3.015,5.371 -10.222,4.194 -11.022,3.863 -0.801,-0.33 -7.192,-0.408 -7.756,-0.408 -0.566,0 -1.823,1.822 -2.953,2.953 -1.13,1.131 0,7.034 0,3.515 0,-3.515 9.232,-5.715 3.957,-1.882 -5.276,3.832 -3.643,5.086 -4.271,7.096 -0.628,2.01 1.696,4.775 1.696,1.194 0,-3.581 6.217,-5.59 3.894,-3.266 -2.323,2.323 -2.575,4.082 -3.392,7.223 -0.816,3.139 0.58,0.883 0.58,0.883 0.579,-0.936 1.893,-2.025 2.918,-2.421 0,0 2.532,-0.976 0.082,0.973 l -2.449,1.946 c 0.692,0.726 2.022,0.846 2.958,0.269 0,0 7.97,-4.916 0.559,0.171 -7.411,5.087 -5.998,12.656 -7.129,13.784 -1.131,1.133 -2.732,24.025 -23.269,21.766 -20.539,-2.262 -20.774,-25.296 -22.894,-27.415 -2.119,-2.12 -1.036,-1.038 -0.565,-1.508 l 0.471,-0.471 c 0.622,0.259 2.029,0.512 3.129,0.563 0,0 0.569,0.026 -3.412,-3.954 -3.98,-3.981 -2.871,-4.282 -2.871,-4.282 1.06,-0.288 1.271,-1.137 0.466,-1.887 0,0 -0.691,0.427 -1.08,-0.428 -0.388,-0.855 -0.101,-0.888 0.639,-0.074 0,0 2.893,3.183 3.836,1.675 0.317,-0.507 2.214,-2.731 -2.238,-6.005 -4.451,-3.272 -4.828,-4.829 -4.168,-6.522 l 0.659,-1.696 c 0.907,0.621 2.03,1.001 2.497,0.845 l -2.168,1.274 c -2.166,1.27 3.109,3.839 4.993,4.615 1.884,0.777 1.437,-0.776 0.659,-1.554 -0.776,-0.777 -3.439,-4.913 -3.439,-4.913 -0.595,-0.924 -1.273,-2.211 -1.506,-2.859 l -0.611,-4.334 c -0.613,-4.332 1.412,-3.364 0.988,-2.591 -0.424,0.774 0.424,6.925 0.424,6.36 0,-0.565 1.766,-4.451 1.225,-4.994 -0.542,-0.541 -2.544,-5.164 -4.177,-6.798 -1.633,-1.634 -7.695,-2.999 -10.615,-11.62 -2.919,-8.621 -9.044,-11.917 -12.105,-15.874 -3.062,-3.956 -7.055,-12.561 -7.254,-13.189 -0.211,-0.659 -0.769,-0.974 -0.769,-3.471 0,-1.649 0.156,-1.757 0.156,-1.757 0.907,-0.623 2.292,-1.761 3.08,-2.529 0,0 15.856,-15.467 19.625,-17.067 3.767,-1.602 5.11,-3.502 5.11,-3.502 0.635,-0.898 1.173,-1.891 1.197,-2.206 0.022,-0.316 0.029,-0.551 0.013,-0.522 -0.015,0.028 0.018,-0.785 0.1,-1.882 l 0.326,-4.433 c 0.08,-1.097 0.153,-1.98 0.161,-1.962 0.008,0.017 0.093,-0.832 0.173,-1.929 l 2.445,-33.917 c 0.078,-1.097 0.078,-1.097 -0.003,0 l -2.483,33.819 c -0.08,1.097 -0.209,1.097 -0.285,0 0,0 -0.064,-0.918 -0.191,-1.963 -0.157,-1.287 0.753,-1.571 0.753,-2.45 0,-0.878 -1.162,-5.873 -1.742,-7.677 -0.581,-1.808 -0.571,-1.805 -0.571,-1.805 1.065,0.275 1.928,-0.4 1.917,-1.5 0,0 -0.106,-11.096 0.208,-16.936 0.313,-5.84 0.628,-6.593 1.948,-8.856 0.795,-1.363 1.131,-3.826 1.131,-3.826 0.148,-1.09 0.293,-2.21 0.322,-2.49 0.03,-0.28 0.231,-1.391 0.447,-2.469 0,0 9.342,-46.61 8.337,-52.388 -1.004,-5.777 3.72,-29.062 5.103,-34.592 1.382,-5.525 6.579,-18.683 6.579,-21.839 0,-3.157 -0.282,-6.784 1.131,-11.307 1.077,-3.445 -1.067,-13.598 -1.696,-15.106 -0.628,-1.507 -2.783,-4.955 0.283,-7.787 C -1.6,-41.357 3,-33.922 3,-33.922 c 0.578,0.936 1.313,0.84 1.633,-0.213 0,0 0.173,-0.57 5.26,-2.043 7.653,-2.213 10.74,0.754 10.269,8.764 -0.472,8.008 -7.537,18.84 -7.537,23.363 0,4.524 -2.041,8.596 -1.979,9.326 2.074,24.12 1.55,26.477 2.262,34.67 0.588,6.784 -1.32,15.922 -3.392,21.858 -2.073,5.933 1.224,17.615 2.921,21.856 1.696,4.238 9.043,20.034 9.327,22.799 0.282,2.764 2.281,6.02 2.281,6.02 0.576,0.938 1.651,1.457 2.39,1.154 L 26.643,114 c 5.82,10.336 5.496,19.343 7.369,24.677 1.758,5.008 -1.258,6.219 3.264,17.711 4.523,11.494 4.177,30.383 4.884,31.09 0.706,0.707 2.311,8.931 2.638,10.221 0.942,3.722 -0.801,11.917 -0.801,15.121"
             style="fill:#000000;fill-opacity:1;fill-rule:nonzero;stroke:none"
             id="path534" /></g><g
           id="g536"
           transform="translate(7190.8018,7121.1113)"><path
             d="M 0,0 C -3.197,3.197 -2.26,17.807 -2.26,17.807 0.283,15.262 1.979,-1.977 0,0 m -2.496,129.585 c -0.285,-0.699 -0.709,-0.699 -0.942,0 -0.234,0.7 0,1.271 0.518,1.271 0.519,0 0.709,-0.571 0.424,-1.271 m -22.657,43.165 c 0,0.69 -5.872,6.375 -7.663,8.164 -1.789,1.789 -6,6.782 -8.008,9.328 -2.574,3.265 -8.44,8.736 -8.949,9.452 -2.167,3.045 1.255,3.894 2.763,6.533 1.508,2.635 10.364,10.361 15.325,15.322 4.962,4.962 6.171,2.433 6.171,2.433 0.475,-0.992 1.076,-2.679 1.334,-3.748 l 3.032,-13.711 c 0.717,-0.833 1.326,-1.538 1.35,-1.565 0.026,-0.028 0.038,-0.043 0.03,-0.033 -0.009,0.009 0.073,-0.805 0.252,-1.89 0,0 0.31,-1.86 0.832,-4.973 3.077,-18.339 -6.469,-26.003 -6.469,-25.312 m 69.15,40.07 c 0,3.203 0.659,6.502 0.095,8.384 -0.567,1.886 -1.226,7.351 -1.226,12.343 0,4.993 0.566,13.188 -2.449,18.558 -3.015,5.371 -10.222,4.194 -11.022,3.863 -0.801,-0.33 -7.192,-0.408 -7.756,-0.408 -0.566,0 -1.823,1.822 -2.953,2.953 -1.13,1.131 0,7.034 0,3.515 0,-3.515 9.232,-5.715 3.957,-1.882 -5.276,3.832 -3.643,5.086 -4.271,7.096 -0.628,2.01 1.696,4.775 1.696,1.194 0,-3.581 6.217,-5.59 3.894,-3.266 -2.323,2.323 -2.575,4.082 -3.392,7.223 -0.816,3.139 0.58,0.883 0.58,0.883 0.579,-0.936 1.893,-2.025 2.918,-2.421 0,0 2.532,-0.976 0.082,0.973 l -2.449,1.946 c 0.692,0.726 2.022,0.846 2.958,0.269 0,0 7.97,-4.916 0.559,0.171 -7.411,5.087 -5.998,12.656 -7.129,13.784 -1.131,1.133 -2.732,24.025 -23.269,21.766 -20.539,-2.262 -20.774,-25.296 -22.894,-27.415 -2.119,-2.12 -1.036,-1.038 -0.565,-1.508 l 0.471,-0.471 c 0.622,0.259 2.029,0.512 3.129,0.563 0,0 0.569,0.026 -3.412,-3.954 -3.98,-3.981 -2.871,-4.282 -2.871,-4.282 1.06,-0.288 1.271,-1.137 0.466,-1.887 0,0 -0.691,0.427 -1.08,-0.428 -0.388,-0.855 -0.101,-0.888 0.639,-0.074 0,0 2.893,3.183 3.836,1.675 0.317,-0.507 2.214,-2.731 -2.238,-6.005 -4.451,-3.272 -4.828,-4.829 -4.168,-6.522 l 0.659,-1.696 c 0.907,0.621 2.03,1.001 2.497,0.845 l -2.168,1.274 c -2.166,1.27 3.109,3.839 4.993,4.615 1.884,0.777 1.437,-0.776 0.659,-1.554 -0.776,-0.777 -3.439,-4.913 -3.439,-4.913 -0.595,-0.924 -1.273,-2.211 -1.506,-2.859 l -0.611,-4.334 c -0.613,-4.332 1.412,-3.364 0.988,-2.591 -0.424,0.774 0.424,6.925 0.424,6.36 0,-0.565 1.766,-4.451 1.225,-4.994 -0.542,-0.541 -2.544,-5.164 -4.177,-6.798 -1.633,-1.634 -7.695,-2.999 -10.615,-11.62 -2.919,-8.621 -9.044,-11.917 -12.105,-15.874 -3.062,-3.956 -7.055,-12.561 -7.254,-13.189 -0.211,-0.659 -0.769,-0.974 -0.769,-3.471 0,-1.649 0.156,-1.757 0.156,-1.757 0.907,-0.623 2.292,-1.761 3.08,-2.529 0,0 15.856,-15.467 19.625,-17.067 3.767,-1.602 5.11,-3.502 5.11,-3.502 0.635,-0.898 1.173,-1.891 1.197,-2.206 0.022,-0.316 0.029,-0.551 0.013,-0.522 -0.015,0.028 0.018,-0.785 0.1,-1.882 l 0.326,-4.433 c 0.08,-1.097 0.153,-1.98 0.161,-1.962 0.008,0.017 0.093,-0.832 0.173,-1.929 l 2.445,-33.917 c 0.078,-1.097 0.078,-1.097 -0.003,0 l -2.483,33.819 c -0.08,1.097 -0.209,1.097 -0.285,0 0,0 -0.064,-0.918 -0.191,-1.963 -0.157,-1.287 0.753,-1.571 0.753,-2.45 0,-0.878 -1.162,-5.873 -1.742,-7.677 -0.581,-1.808 -0.571,-1.805 -0.571,-1.805 1.065,0.275 1.928,-0.4 1.917,-1.5 0,0 -0.106,-11.096 0.208,-16.936 0.313,-5.84 0.628,-6.593 1.948,-8.856 0.795,-1.363 1.131,-3.826 1.131,-3.826 0.148,-1.09 0.293,-2.21 0.322,-2.49 0.03,-0.28 0.231,-1.391 0.447,-2.469 0,0 9.342,-46.61 8.337,-52.388 -1.004,-5.777 3.72,-29.062 5.103,-34.592 1.382,-5.525 6.579,-18.683 6.579,-21.839 0,-3.157 -0.282,-6.784 1.131,-11.307 1.077,-3.445 -1.067,-13.598 -1.696,-15.106 -0.628,-1.507 -2.783,-4.955 0.283,-7.787 C -1.6,-41.357 3,-33.922 3,-33.922 c 0.578,0.936 1.313,0.84 1.633,-0.213 0,0 0.173,-0.57 5.26,-2.043 7.653,-2.213 10.74,0.754 10.269,8.764 -0.472,8.008 -7.537,18.84 -7.537,23.363 0,4.524 -2.041,8.596 -1.979,9.326 2.074,24.12 1.55,26.477 2.262,34.67 0.588,6.784 -1.32,15.922 -3.392,21.858 -2.073,5.933 1.224,17.615 2.921,21.856 1.696,4.238 9.043,20.034 9.327,22.799 0.282,2.764 2.281,6.02 2.281,6.02 0.576,0.938 1.651,1.457 2.39,1.154 L 26.643,114 c 5.82,10.336 5.496,19.343 7.369,24.677 1.758,5.008 -1.258,6.219 3.264,17.711 4.523,11.494 4.177,30.383 4.884,31.09 0.706,0.707 2.311,8.931 2.638,10.221 0.942,3.722 -0.801,11.917 -0.801,15.121"
             style="fill:#000000;fill-opacity:1;fill-rule:nonzero;stroke:none"
             id="path538" /></g><g
           id="g540"
           transform="translate(7157.9199,7240.6758)"><path
             d="m 0,0 c 25.77,-0.918 25.792,-1.217 27.324,-0.955 1.288,0.22 0.915,-1.748 1.131,-1.789 L 27.621,-6.08 c -0.267,-1.067 -1.383,-2.009 -2.479,-2.093 0,0 -22.196,-1.7 -23.882,1.367 C -0.427,-3.738 0.315,-0.848 0,0"
             style="fill:#fcfafa;fill-opacity:1;fill-rule:nonzero;stroke:none"
             id="path542" /></g><g
           id="g544"
           transform="translate(7157.9199,7240.6758)"><path
             d="m 0,0 c 25.77,-0.918 25.792,-1.217 27.324,-0.955 1.288,0.22 0.915,-1.748 1.131,-1.789 L 27.621,-6.08 c -0.267,-1.067 -1.383,-2.009 -2.479,-2.093 0,0 -22.196,-1.7 -23.882,1.367 C -0.427,-3.738 0.315,-0.848 0,0 Z"
             style="fill:none;stroke:#000000;stroke-width:1;stroke-linecap:butt;stroke-linejoin:miter;stroke-miterlimit:4;stroke-dasharray:none;stroke-opacity:1"
             id="path546" /></g><g
           id="g548"
           transform="translate(7185.8896,7235.9912)"><path
             d="m 0,0 c 0.268,1.067 1.007,2.674 1.645,3.57 0,0 2.326,3.27 10.994,1.667 8.667,-1.601 11.472,-2.918 11.472,-2.918 0.996,-0.467 2.586,-1.305 3.535,-1.862 0,0 1.25,-0.735 1.25,-2.64 0,-1.157 -1.541,-2.203 -1.998,-4.647 -0.252,-1.358 -10.209,11.691 -27.449,3.213 -0.156,0.155 -0.064,1.154 0.202,2.221 z"
             style="fill:#fcfafa;fill-opacity:1;fill-rule:nonzero;stroke:none"
             id="path550" /></g><g
           id="g552"
           transform="translate(7185.8896,7235.9912)"><path
             d="m 0,0 c 0.268,1.067 1.007,2.674 1.645,3.57 0,0 2.326,3.27 10.994,1.667 8.667,-1.601 11.472,-2.918 11.472,-2.918 0.996,-0.467 2.586,-1.305 3.535,-1.862 0,0 1.25,-0.735 1.25,-2.64 0,-1.157 -1.541,-2.203 -1.998,-4.647 -0.252,-1.358 -10.209,11.691 -27.449,3.213 -0.156,0.155 -0.064,1.154 0.202,2.221 z"
             style="fill:none;stroke:#000000;stroke-width:1;stroke-linecap:butt;stroke-linejoin:miter;stroke-miterlimit:4;stroke-dasharray:none;stroke-opacity:1"
             id="path554" /></g><g
           id="g556"
           transform="translate(7166.2842,7285.1602)"><path
             d="m 0,0 c -0.246,1.072 0.125,1.254 0.824,0.406 0,0 11.071,-13.436 21.339,-15.414 10.269,-1.979 15.922,-2.167 18.653,-1.037 2.733,1.131 9.159,5.315 9.159,5.315 0.921,0.6 1.548,0.455 1.394,-0.322 -0.156,-0.778 -1.075,-1.842 -2.043,-2.364 l -5.901,-3.187 c -0.968,-0.522 -2.447,-1.53 -3.288,-2.24 0,0 -16.09,-13.594 -17.126,-13.972 l -1.036,-0.377 c -0.881,0.156 -2.086,1.043 -2.678,1.969 0,0 -9.569,14.989 -9.569,18.193 0,3.203 -1.13,3.391 -1.79,4.051 -0.661,0.659 -5.832,5.103 -5.832,5.103 -0.834,0.717 -1.717,2.181 -1.963,3.253 z"
             style="fill:#fcfafa;fill-opacity:1;fill-rule:nonzero;stroke:none"
             id="path558" /></g><g
           id="g560"
           transform="translate(7166.2842,7285.1602)"><path
             d="m 0,0 c -0.246,1.072 0.125,1.254 0.824,0.406 0,0 11.071,-13.436 21.339,-15.414 10.269,-1.979 15.922,-2.167 18.653,-1.037 2.733,1.131 9.159,5.315 9.159,5.315 0.921,0.6 1.548,0.455 1.394,-0.322 -0.156,-0.778 -1.075,-1.842 -2.043,-2.364 l -5.901,-3.187 c -0.968,-0.522 -2.447,-1.53 -3.288,-2.24 0,0 -16.09,-13.594 -17.126,-13.972 l -1.036,-0.377 c -0.881,0.156 -2.086,1.043 -2.678,1.969 0,0 -9.569,14.989 -9.569,18.193 0,3.203 -1.13,3.391 -1.79,4.051 -0.661,0.659 -5.832,5.103 -5.832,5.103 -0.834,0.717 -1.717,2.181 -1.963,3.253 z"
             style="fill:none;stroke:#000000;stroke-width:1;stroke-linecap:butt;stroke-linejoin:miter;stroke-miterlimit:4;stroke-dasharray:none;stroke-opacity:1"
             id="path562" /></g><g
           id="g564"
           transform="translate(7168.2861,7349.9473)"><path
             d="m 0,0 c 0,0 -7.797,-10.64 2.213,-23.292 1.826,-2.309 1.725,-15.429 -0.14,-23.812 -1.505,-6.768 -3.147,-8.079 -3.147,-8.079 -0.86,-0.686 -0.966,-1.921 -0.235,-2.743 0,0 9.223,-10.377 9.223,-11.508 0,-1.129 -0.941,-14.696 -1.601,-19.5 -0.661,-4.805 -2.548,-18.42 -2.548,-20.845 0,-0.495 0.585,-0.404 0.585,-0.404 1.086,0.171 1.998,1.211 2.025,2.31 0,0 0.314,12.626 1.539,15.453 1.225,2.825 2.488,19.767 2.488,19.767 0.082,1.097 1.022,1.774 2.087,1.504 0,0 18.13,-4.594 24.818,-2.052 6.689,2.543 7.255,3.391 6.689,0.941 -0.564,-2.448 -5.275,-25.247 -5.935,-28.733 -0.659,-3.486 -0.659,-7.377 -0.659,-7.377 0,-1.1 0.568,-2.172 1.261,-2.382 0.693,-0.21 1.275,0.518 1.292,1.618 0,0 0.085,5.503 0.744,8.613 0.659,3.108 5.04,29.627 5.746,30.334 0.707,0.707 4.385,2.31 4.385,2.31 1.009,0.439 1.606,1.669 1.327,2.733 0,0 -5.616,21.431 2.296,37.54 5.377,10.948 2.262,26.569 0.472,27.511 -1.79,0.941 -18.752,1.585 -22.234,-19.691 -3.391,-20.726 -4.05,-35.328 -4.05,-38.72 h -0.356 c -1.099,0 -2.027,0.9 -2.059,1.999 0,0 -0.882,29.466 -4.463,36.062 C 18.184,-13.85 14.227,1.226 0,0"
             style="fill:#fcfafa;fill-opacity:1;fill-rule:nonzero;stroke:none"
             id="path566" /></g><g
           id="g568"
           transform="translate(7168.2861,7349.9473)"><path
             d="m 0,0 c 0,0 -7.797,-10.64 2.213,-23.292 1.826,-2.309 1.725,-15.429 -0.14,-23.812 -1.505,-6.768 -3.147,-8.079 -3.147,-8.079 -0.86,-0.686 -0.966,-1.921 -0.235,-2.743 0,0 9.223,-10.377 9.223,-11.508 0,-1.129 -0.941,-14.696 -1.601,-19.5 -0.661,-4.805 -2.548,-18.42 -2.548,-20.845 0,-0.495 0.585,-0.404 0.585,-0.404 1.086,0.171 1.998,1.211 2.025,2.31 0,0 0.314,12.626 1.539,15.453 1.225,2.825 2.488,19.767 2.488,19.767 0.082,1.097 1.022,1.774 2.087,1.504 0,0 18.13,-4.594 24.818,-2.052 6.689,2.543 7.255,3.391 6.689,0.941 -0.564,-2.448 -5.275,-25.247 -5.935,-28.733 -0.659,-3.486 -0.659,-7.377 -0.659,-7.377 0,-1.1 0.568,-2.172 1.261,-2.382 0.693,-0.21 1.275,0.518 1.292,1.618 0,0 0.085,5.503 0.744,8.613 0.659,3.108 5.04,29.627 5.746,30.334 0.707,0.707 4.385,2.31 4.385,2.31 1.009,0.439 1.606,1.669 1.327,2.733 0,0 -5.616,21.431 2.296,37.54 5.377,10.948 2.262,26.569 0.472,27.511 -1.79,0.941 -18.752,1.585 -22.234,-19.691 -3.391,-20.726 -4.05,-35.328 -4.05,-38.72 h -0.356 c -1.099,0 -2.027,0.9 -2.059,1.999 0,0 -0.882,29.466 -4.463,36.062 C 18.184,-13.85 14.227,1.226 0,0 Z"
             style="fill:none;stroke:#000000;stroke-width:1;stroke-linecap:butt;stroke-linejoin:miter;stroke-miterlimit:4;stroke-dasharray:none;stroke-opacity:1"
             id="path570" /></g></g></g></g></svg>
